<?xml version="1.0" encoding="iso-8859-1"?>
<svg version="1.1" id="Capa_1" xmlns="http://www.w3.org/2000/svg" xmlns:xlink="http://www.w3.org/1999/xlink" x="0px" y="0px"
	 viewBox="0 0 464 464" style="enable-background:new 0 0 464 464;" xml:space="preserve">
<path style="fill:#fff;" d="M104,104c0-8.837-7.163-16-16-16s-16,7.163-16,16v8L0,160v40l128,32l32,80l-32,64h64l40-80h136l24,24
	l-8,32l-16,24h72l24-80v-88c0-53.019-42.981-96-96-96H104V104z"/>
<path style="fill:#e1f3ff;" d="M430.168,134.928C368.544,233.856,232,262.28,144.088,272.224L160,312l-32,64h64l40-80h136l24,24
	l-8,32l-16,24h72l24-80v-88C464.016,179.853,451.641,153.126,430.168,134.928L430.168,134.928z"/>
<g>
	<path style="fill:#6e8ea4;" d="M68,160c-6.627,0-12-5.373-12-12s5.373-12,12-12s12,5.373,12,12S74.627,160,68,160z"/>
	<path style="fill:#6e8ea4;" d="M232,304c-3.666-0.004-6.861-2.499-7.752-6.056l-16-64c-1.043-4.293,1.592-8.619,5.885-9.663
		c4.25-1.033,8.542,1.54,9.635,5.775l16,64c1.073,4.286-1.533,8.63-5.819,9.703c-0.002,0-0.004,0.001-0.005,0.001
		C233.309,303.922,232.656,304.003,232,304z"/>
	<path style="fill:#6e8ea4;" d="M368,304c-2.122,0-4.156-0.844-5.656-2.344c-16.92-16.833-26.406-39.733-26.344-63.6V232
		c0-4.418,3.582-8,8-8s8,3.582,8,8v6.056c-0.055,19.622,7.743,38.451,21.656,52.288c3.124,3.125,3.123,8.19-0.002,11.314
		C372.155,303.157,370.121,304,368,304z"/>
</g>
</svg>
