<?xml version="1.0" encoding="utf-8"?>
<!-- Generator: Adobe Illustrator 18.1.1, SVG Export Plug-In . SVG Version: 6.00 Build 0)  -->
<!DOCTYPE svg PUBLIC "-//W3C//DTD SVG 1.1//EN" "http://www.w3.org/Graphics/SVG/1.1/DTD/svg11.dtd">
<svg version="1.1" id="Layer_1" xmlns="http://www.w3.org/2000/svg" xmlns:xlink="http://www.w3.org/1999/xlink" x="0px" y="0px"
	 viewBox="25.5 268.5 581.7 320.7" enable-background="new 25.5 268.5 581.7 320.7" xml:space="preserve">
<g>
	<path fill-opacity="0" d="M581.4,268.5"/>
	<path fill="none" stroke="#CC0202" stroke-width="5.3333" stroke-linejoin="round" stroke-miterlimit="10" d="M581.4,268.5"/>
	<path fill="#CFD4D4" d="M196.8,369.1h63.4v42.4h-63.4V369.1z"/>
	<path fill="#D8DCDC" d="M189.7,362.1h77.6l-7.1,7.1h-63.4L189.7,362.1z"/>
	<path fill="#A5A9A9" d="M189.7,418.6l7.1-7.1h63.4l7.1,7.1H189.7z"/>
	<path fill="#E2E5E5" d="M189.7,362.1l7.1,7.1v42.4l-7.1,7.1V362.1z"/>
	<path fill="#7C7F7F" d="M267.3,362.1v56.5l-7.1-7.1v-42.4L267.3,362.1z"/>
	<path fill-opacity="0" d="M189.7,362.1h77.6v56.5h-77.6V362.1z M196.8,369.1h63.4v42.4h-63.4V369.1z M189.7,362.1l7.1,7.1
		 M189.7,418.6l7.1-7.1 M267.3,362.1l-7.1,7.1 M267.3,418.6l-7.1-7.1"/>
	<path fill="none" stroke="#5B595A" stroke-width="2" stroke-linejoin="round" stroke-miterlimit="10" d="M189.7,362.1h77.6v56.5
		h-77.6V362.1z M196.8,369.1h63.4v42.4h-63.4V369.1z M189.7,362.1l7.1,7.1 M189.7,418.6l7.1-7.1 M267.3,362.1l-7.1,7.1 M267.3,418.6
		l-7.1-7.1"/>
	<path d="M204.8,388v-7.3h1v6.4h3.6v0.9H204.8z M210.1,385.3c0-1,0.3-1.7,0.8-2.2c0.5-0.4,1-0.6,1.7-0.6c0.7,0,1.3,0.2,1.8,0.7
		c0.5,0.5,0.7,1.1,0.7,2c0,0.7-0.1,1.2-0.3,1.6c-0.2,0.4-0.5,0.7-0.9,0.9c-0.4,0.2-0.8,0.3-1.3,0.3c-0.7,0-1.3-0.2-1.8-0.7
		C210.3,386.9,210.1,386.2,210.1,385.3z M211,385.3c0,0.7,0.1,1.2,0.4,1.5c0.3,0.3,0.7,0.5,1.1,0.5c0.4,0,0.8-0.2,1.1-0.5
		c0.3-0.3,0.4-0.9,0.4-1.6c0-0.7-0.1-1.1-0.4-1.5c-0.3-0.3-0.7-0.5-1.1-0.5c-0.4,0-0.8,0.2-1.1,0.5C211.2,384.2,211,384.7,211,385.3
		z M219.6,386.1l0.9,0.1c-0.1,0.6-0.3,1.1-0.7,1.4c-0.4,0.3-0.9,0.5-1.5,0.5c-0.7,0-1.3-0.2-1.8-0.7c-0.4-0.5-0.7-1.2-0.7-2
		c0-0.6,0.1-1.1,0.3-1.5c0.2-0.4,0.5-0.8,0.9-1c0.4-0.2,0.8-0.3,1.3-0.3c0.6,0,1,0.1,1.4,0.4c0.4,0.3,0.6,0.7,0.7,1.2l-0.9,0.1
		c-0.1-0.4-0.2-0.6-0.4-0.8c-0.2-0.2-0.5-0.3-0.8-0.3c-0.5,0-0.8,0.2-1.1,0.5c-0.3,0.3-0.4,0.8-0.4,1.5c0,0.7,0.1,1.2,0.4,1.6
		c0.3,0.3,0.6,0.5,1.1,0.5c0.4,0,0.6-0.1,0.9-0.3C219.4,386.8,219.5,386.5,219.6,386.1z M224.7,387.3c-0.3,0.3-0.7,0.5-1,0.6
		c-0.3,0.1-0.6,0.2-1,0.2c-0.6,0-1-0.1-1.3-0.4c-0.3-0.3-0.5-0.6-0.5-1.1c0-0.3,0.1-0.5,0.2-0.7c0.1-0.2,0.3-0.4,0.5-0.5
		c0.2-0.1,0.4-0.2,0.6-0.3c0.2,0,0.4-0.1,0.8-0.1c0.7-0.1,1.3-0.2,1.6-0.3c0-0.1,0-0.2,0-0.2c0-0.4-0.1-0.6-0.2-0.8
		c-0.2-0.2-0.6-0.3-1-0.3c-0.4,0-0.7,0.1-0.9,0.2c-0.2,0.1-0.3,0.4-0.4,0.8l-0.9-0.1c0.1-0.4,0.2-0.7,0.4-0.9
		c0.2-0.2,0.5-0.4,0.8-0.5c0.3-0.1,0.7-0.2,1.2-0.2c0.5,0,0.8,0.1,1.1,0.2c0.3,0.1,0.5,0.2,0.6,0.4c0.1,0.2,0.2,0.4,0.3,0.6
		c0,0.2,0,0.4,0,0.8v1.2c0,0.8,0,1.4,0,1.6c0,0.2,0.1,0.4,0.2,0.6h-0.9C224.8,387.8,224.7,387.6,224.7,387.3z M224.6,385.3
		c-0.3,0.1-0.8,0.2-1.5,0.3c-0.4,0.1-0.6,0.1-0.8,0.2c-0.2,0.1-0.3,0.2-0.4,0.3c-0.1,0.1-0.1,0.3-0.1,0.4c0,0.2,0.1,0.4,0.3,0.6
		c0.2,0.2,0.5,0.2,0.8,0.2c0.3,0,0.7-0.1,0.9-0.2c0.3-0.2,0.5-0.4,0.6-0.6c0.1-0.2,0.1-0.5,0.1-0.9V385.3z M226.9,388v-7.3h0.9v7.3
		H226.9z M232.1,388v-7.3h2.5c0.6,0,1,0,1.3,0.1c0.4,0.1,0.8,0.3,1.1,0.5c0.4,0.3,0.7,0.7,0.9,1.2c0.2,0.5,0.3,1.1,0.3,1.7
		c0,0.6-0.1,1.1-0.2,1.5c-0.1,0.4-0.3,0.8-0.5,1.1c-0.2,0.3-0.4,0.5-0.7,0.7c-0.2,0.2-0.5,0.3-0.9,0.4c-0.3,0.1-0.7,0.1-1.2,0.1
		H232.1z M233.1,387.1h1.6c0.5,0,0.9,0,1.1-0.1c0.3-0.1,0.5-0.2,0.7-0.4c0.2-0.2,0.4-0.5,0.5-0.9c0.1-0.4,0.2-0.9,0.2-1.4
		c0-0.8-0.1-1.4-0.4-1.8c-0.2-0.4-0.5-0.7-0.9-0.8c-0.3-0.1-0.7-0.1-1.3-0.1h-1.5V387.1z M239.5,388v-7.3h1l3.8,5.7v-5.7h0.9v7.3h-1
		l-3.8-5.7v5.7H239.5z M246.5,385.6l0.9-0.1c0,0.4,0.1,0.7,0.3,0.9c0.2,0.2,0.4,0.4,0.7,0.6c0.3,0.1,0.7,0.2,1.1,0.2
		c0.4,0,0.7-0.1,1-0.2c0.3-0.1,0.5-0.3,0.6-0.4c0.1-0.2,0.2-0.4,0.2-0.6c0-0.2-0.1-0.4-0.2-0.6c-0.1-0.2-0.4-0.3-0.7-0.4
		c-0.2-0.1-0.6-0.2-1.3-0.3c-0.7-0.2-1.1-0.3-1.4-0.5c-0.3-0.2-0.6-0.4-0.8-0.7c-0.2-0.3-0.3-0.6-0.3-0.9c0-0.4,0.1-0.7,0.3-1
		c0.2-0.3,0.5-0.6,0.9-0.7c0.4-0.2,0.9-0.2,1.3-0.2c0.5,0,1,0.1,1.4,0.3c0.4,0.2,0.7,0.4,0.9,0.8c0.2,0.3,0.3,0.7,0.4,1.1l-0.9,0.1
		c-0.1-0.5-0.2-0.8-0.5-1c-0.3-0.2-0.7-0.4-1.3-0.4c-0.6,0-1,0.1-1.3,0.3c-0.3,0.2-0.4,0.5-0.4,0.8c0,0.3,0.1,0.5,0.3,0.6
		c0.2,0.2,0.7,0.3,1.5,0.5c0.8,0.2,1.3,0.3,1.6,0.5c0.4,0.2,0.7,0.4,0.9,0.7c0.2,0.3,0.3,0.6,0.3,1c0,0.4-0.1,0.8-0.3,1.1
		c-0.2,0.3-0.5,0.6-1,0.8c-0.4,0.2-0.9,0.3-1.4,0.3c-0.7,0-1.2-0.1-1.7-0.3c-0.4-0.2-0.8-0.5-1.1-0.9
		C246.7,386.6,246.5,386.1,246.5,385.6z"/>
	<path d="M219.7,397.6l1,0.2c-0.2,0.8-0.6,1.4-1.1,1.8c-0.5,0.4-1.2,0.6-1.9,0.6c-0.8,0-1.4-0.2-1.9-0.5c-0.5-0.3-0.9-0.8-1.1-1.4
		c-0.3-0.6-0.4-1.3-0.4-2c0-0.8,0.1-1.4,0.4-2c0.3-0.6,0.7-1,1.2-1.3c0.5-0.3,1.1-0.4,1.8-0.4c0.7,0,1.3,0.2,1.8,0.6
		c0.5,0.4,0.8,0.9,1,1.6l-1,0.2c-0.2-0.5-0.4-0.9-0.7-1.2c-0.3-0.2-0.7-0.4-1.2-0.4c-0.6,0-1,0.1-1.4,0.4c-0.4,0.3-0.6,0.6-0.8,1.1
		c-0.2,0.5-0.2,0.9-0.2,1.4c0,0.6,0.1,1.2,0.3,1.6c0.2,0.5,0.5,0.8,0.8,1c0.4,0.2,0.8,0.3,1.2,0.3c0.5,0,1-0.2,1.4-0.5
		C219.3,398.6,219.6,398.2,219.7,397.6z M225.2,399.5c-0.3,0.3-0.7,0.5-1,0.6c-0.3,0.1-0.6,0.2-1,0.2c-0.6,0-1-0.1-1.3-0.4
		c-0.3-0.3-0.5-0.6-0.5-1.1c0-0.3,0.1-0.5,0.2-0.7c0.1-0.2,0.3-0.4,0.5-0.5c0.2-0.1,0.4-0.2,0.6-0.3c0.2,0,0.4-0.1,0.8-0.1
		c0.7-0.1,1.3-0.2,1.6-0.3c0-0.1,0-0.2,0-0.2c0-0.4-0.1-0.6-0.2-0.8c-0.2-0.2-0.6-0.3-1-0.3c-0.4,0-0.7,0.1-0.9,0.2
		c-0.2,0.1-0.3,0.4-0.4,0.8l-0.9-0.1c0.1-0.4,0.2-0.7,0.4-0.9c0.2-0.2,0.5-0.4,0.8-0.5c0.3-0.1,0.7-0.2,1.2-0.2
		c0.5,0,0.8,0.1,1.1,0.2c0.3,0.1,0.5,0.2,0.6,0.4c0.1,0.2,0.2,0.4,0.3,0.6c0,0.2,0,0.4,0,0.8v1.2c0,0.8,0,1.4,0,1.6
		c0,0.2,0.1,0.4,0.2,0.6h-0.9C225.3,399.9,225.3,399.7,225.2,399.5z M225.2,397.5c-0.3,0.1-0.8,0.2-1.5,0.3
		c-0.4,0.1-0.6,0.1-0.8,0.2c-0.2,0.1-0.3,0.2-0.4,0.3c-0.1,0.1-0.1,0.3-0.1,0.4c0,0.2,0.1,0.4,0.3,0.6c0.2,0.2,0.5,0.2,0.8,0.2
		c0.3,0,0.7-0.1,0.9-0.2c0.3-0.2,0.5-0.4,0.6-0.6c0.1-0.2,0.1-0.5,0.1-0.9V397.5z M230.9,398.2l0.9,0.1c-0.1,0.6-0.3,1.1-0.7,1.4
		c-0.4,0.3-0.9,0.5-1.5,0.5c-0.7,0-1.3-0.2-1.8-0.7c-0.4-0.5-0.7-1.2-0.7-2c0-0.6,0.1-1.1,0.3-1.5c0.2-0.4,0.5-0.8,0.9-1
		c0.4-0.2,0.8-0.3,1.3-0.3c0.6,0,1,0.1,1.4,0.4c0.4,0.3,0.6,0.7,0.7,1.2l-0.9,0.1c-0.1-0.4-0.2-0.6-0.4-0.8
		c-0.2-0.2-0.5-0.3-0.8-0.3c-0.5,0-0.8,0.2-1.1,0.5c-0.3,0.3-0.4,0.8-0.4,1.5c0,0.7,0.1,1.2,0.4,1.6c0.3,0.3,0.6,0.5,1.1,0.5
		c0.4,0,0.6-0.1,0.9-0.3C230.7,399,230.8,398.6,230.9,398.2z M232.6,400.1v-7.3h0.9v2.6c0.4-0.5,0.9-0.7,1.6-0.7
		c0.4,0,0.7,0.1,1,0.2c0.3,0.2,0.5,0.4,0.6,0.6c0.1,0.3,0.2,0.7,0.2,1.2v3.4H236v-3.4c0-0.4-0.1-0.8-0.3-1c-0.2-0.2-0.5-0.3-0.8-0.3
		c-0.3,0-0.5,0.1-0.7,0.2c-0.2,0.1-0.4,0.3-0.5,0.6c-0.1,0.2-0.1,0.6-0.1,1v2.9H232.6z M241.8,398.4l0.9,0.1c-0.1,0.5-0.4,1-0.8,1.3
		c-0.4,0.3-0.9,0.4-1.5,0.4c-0.8,0-1.4-0.2-1.8-0.7c-0.5-0.5-0.7-1.1-0.7-2c0-0.9,0.2-1.6,0.7-2.1s1.1-0.7,1.8-0.7
		c0.7,0,1.3,0.2,1.7,0.7c0.5,0.5,0.7,1.2,0.7,2c0,0.1,0,0.1,0,0.2h-3.9c0,0.6,0.2,1,0.5,1.3c0.3,0.3,0.7,0.5,1.1,0.5
		c0.3,0,0.6-0.1,0.8-0.3C241.5,399.1,241.7,398.8,241.8,398.4z M238.9,397h2.9c0-0.4-0.2-0.8-0.3-1c-0.3-0.3-0.7-0.5-1.1-0.5
		c-0.4,0-0.8,0.1-1,0.4C239.1,396.1,238.9,396.5,238.9,397z"/>
	<path fill="#CFD4D4" d="M298.2,364.9h89.3v47.9h-89.3V364.9z"/>
	<path fill="#D8DCDC" d="M290.2,356.9h105.2l-8,8h-89.3L290.2,356.9z"/>
	<path fill="#A5A9A9" d="M290.2,420.8l8-8h89.3l8,8H290.2z"/>
	<path fill="#E2E5E5" d="M290.2,356.9l8,8v47.9l-8,8V356.9z"/>
	<path fill="#7C7F7F" d="M395.4,356.9v63.8l-8-8v-47.9L395.4,356.9z"/>
	<path fill-opacity="0" d="M290.2,356.9h105.2v63.8H290.2V356.9z M298.2,364.9h89.3v47.9h-89.3V364.9z M290.2,356.9l8,8
		 M290.2,420.8l8-8 M395.4,356.9l-8,8 M395.4,420.8l-8-8"/>
	<path fill="none" stroke="#5B595A" stroke-width="2" stroke-linejoin="round" stroke-miterlimit="10" d="M290.2,356.9h105.2v63.8
		H290.2V356.9z M298.2,364.9h89.3v47.9h-89.3V364.9z M290.2,356.9l8,8 M290.2,420.8l8-8 M395.4,356.9l-8,8 M395.4,420.8l-8-8"/>
	<path d="M329.5,382.1v-8.7h1.1v7.6h4.3v1H329.5z M335.6,379c0-1.2,0.3-2,1-2.6c0.5-0.5,1.2-0.7,2-0.7c0.9,0,1.6,0.3,2.1,0.9
		c0.6,0.6,0.8,1.3,0.8,2.3c0,0.8-0.1,1.4-0.4,1.9c-0.2,0.5-0.6,0.8-1.1,1.1c-0.5,0.3-1,0.4-1.5,0.4c-0.9,0-1.6-0.3-2.1-0.8
		C335.9,380.8,335.6,380,335.6,379z M336.7,379c0,0.8,0.2,1.4,0.5,1.8c0.4,0.4,0.8,0.6,1.3,0.6c0.5,0,1-0.2,1.3-0.6
		c0.4-0.4,0.5-1,0.5-1.8c0-0.8-0.2-1.4-0.5-1.8c-0.4-0.4-0.8-0.6-1.3-0.6c-0.5,0-1,0.2-1.3,0.6C336.9,377.6,336.7,378.2,336.7,379z
		 M346.8,379.8l1,0.1c-0.1,0.7-0.4,1.3-0.9,1.7c-0.5,0.4-1.1,0.6-1.7,0.6c-0.9,0-1.5-0.3-2.1-0.8c-0.5-0.6-0.8-1.4-0.8-2.4
		c0-0.7,0.1-1.3,0.3-1.8c0.2-0.5,0.6-0.9,1-1.1c0.5-0.3,1-0.4,1.5-0.4c0.7,0,1.2,0.2,1.7,0.5c0.4,0.3,0.7,0.8,0.8,1.5l-1,0.2
		c-0.1-0.4-0.3-0.7-0.5-1c-0.3-0.2-0.6-0.3-0.9-0.3c-0.5,0-1,0.2-1.3,0.6c-0.3,0.4-0.5,1-0.5,1.8c0,0.8,0.2,1.5,0.5,1.8
		c0.3,0.4,0.7,0.6,1.3,0.6c0.4,0,0.8-0.1,1-0.4C346.5,380.7,346.7,380.3,346.8,379.8z M352.7,381.3c-0.4,0.3-0.8,0.6-1.1,0.7
		c-0.4,0.1-0.8,0.2-1.2,0.2c-0.7,0-1.2-0.2-1.6-0.5c-0.4-0.3-0.6-0.8-0.6-1.3c0-0.3,0.1-0.6,0.2-0.8c0.1-0.3,0.3-0.5,0.5-0.6
		c0.2-0.2,0.5-0.3,0.8-0.3c0.2-0.1,0.5-0.1,0.9-0.2c0.9-0.1,1.5-0.2,1.9-0.4c0-0.1,0-0.2,0-0.3c0-0.4-0.1-0.7-0.3-0.9
		c-0.3-0.2-0.7-0.4-1.2-0.4c-0.5,0-0.9,0.1-1.1,0.3c-0.2,0.2-0.4,0.5-0.5,0.9l-1-0.1c0.1-0.4,0.3-0.8,0.5-1.1
		c0.2-0.3,0.5-0.5,0.9-0.6c0.4-0.2,0.9-0.2,1.4-0.2c0.5,0,1,0.1,1.3,0.2c0.3,0.1,0.6,0.3,0.7,0.5c0.2,0.2,0.3,0.4,0.3,0.7
		c0,0.2,0.1,0.5,0.1,1v1.4c0,1,0,1.6,0.1,1.9c0,0.3,0.1,0.5,0.3,0.7h-1.1C352.8,381.9,352.7,381.6,352.7,381.3z M352.6,379
		c-0.4,0.2-1,0.3-1.7,0.4c-0.4,0.1-0.7,0.1-0.9,0.2c-0.2,0.1-0.3,0.2-0.4,0.3s-0.1,0.3-0.1,0.5c0,0.3,0.1,0.5,0.3,0.7
		c0.2,0.2,0.5,0.3,0.9,0.3c0.4,0,0.8-0.1,1.1-0.3c0.3-0.2,0.6-0.4,0.7-0.7c0.1-0.2,0.2-0.6,0.2-1.1V379z M355.2,382.1v-8.7h1.1v8.7
		H355.2z"/>
	<path d="M311.7,396.1v-8.7h3.8c0.8,0,1.4,0.1,1.8,0.2c0.4,0.2,0.7,0.4,1,0.8c0.2,0.4,0.4,0.8,0.4,1.3c0,0.6-0.2,1.1-0.6,1.6
		c-0.4,0.4-1,0.7-1.8,0.8c0.3,0.1,0.5,0.3,0.7,0.4c0.3,0.3,0.6,0.7,0.9,1.2l1.5,2.4h-1.4l-1.1-1.8c-0.3-0.5-0.6-0.9-0.8-1.2
		c-0.2-0.3-0.4-0.5-0.6-0.6c-0.2-0.1-0.3-0.2-0.5-0.2c-0.1,0-0.3,0-0.6,0h-1.3v3.9H311.7z M312.9,391.3h2.5c0.5,0,0.9-0.1,1.2-0.2
		c0.3-0.1,0.5-0.3,0.7-0.5c0.2-0.2,0.2-0.5,0.2-0.8c0-0.4-0.1-0.7-0.4-1c-0.3-0.3-0.8-0.4-1.4-0.4h-2.7V391.3z M319.8,393
		c0-1.2,0.3-2,1-2.6c0.5-0.5,1.2-0.7,2-0.7c0.9,0,1.6,0.3,2.1,0.9c0.6,0.6,0.8,1.3,0.8,2.3c0,0.8-0.1,1.4-0.4,1.9
		c-0.2,0.5-0.6,0.8-1.1,1.1c-0.5,0.3-1,0.4-1.5,0.4c-0.9,0-1.6-0.3-2.1-0.8C320,394.9,319.8,394.1,319.8,393z M320.9,393
		c0,0.8,0.2,1.4,0.5,1.8c0.4,0.4,0.8,0.6,1.3,0.6s1-0.2,1.3-0.6c0.4-0.4,0.5-1,0.5-1.8c0-0.8-0.2-1.4-0.5-1.8
		c-0.4-0.4-0.8-0.6-1.3-0.6c-0.5,0-1,0.2-1.3,0.6C321,391.6,320.9,392.2,320.9,393z M330.9,396.1v-0.9c-0.5,0.7-1.1,1.1-2,1.1
		c-0.4,0-0.7-0.1-1-0.2c-0.3-0.1-0.6-0.3-0.7-0.5c-0.2-0.2-0.3-0.5-0.3-0.8c0-0.2-0.1-0.5-0.1-1v-3.9h1.1v3.5c0,0.6,0,0.9,0.1,1.1
		c0.1,0.3,0.2,0.5,0.4,0.7c0.2,0.2,0.5,0.2,0.8,0.2c0.3,0,0.6-0.1,0.9-0.2c0.3-0.2,0.5-0.4,0.6-0.7c0.1-0.3,0.2-0.7,0.2-1.2v-3.4
		h1.1v6.3H330.9z M335.7,395.2l0.1,0.9c-0.3,0.1-0.6,0.1-0.8,0.1c-0.4,0-0.7-0.1-0.9-0.2c-0.2-0.1-0.4-0.3-0.4-0.5
		c-0.1-0.2-0.1-0.6-0.1-1.3v-3.6h-0.8v-0.8h0.8v-1.6l1.1-0.6v2.2h1.1v0.8h-1.1v3.7c0,0.3,0,0.5,0,0.6c0,0.1,0.1,0.2,0.2,0.2
		c0.1,0.1,0.2,0.1,0.4,0.1C335.4,395.2,335.5,395.2,335.7,395.2z M341,394.1l1.1,0.1c-0.2,0.6-0.5,1.1-1,1.5
		c-0.5,0.4-1.1,0.5-1.8,0.5c-0.9,0-1.6-0.3-2.2-0.8c-0.5-0.6-0.8-1.4-0.8-2.4c0-1.1,0.3-1.9,0.8-2.5c0.5-0.6,1.3-0.9,2.1-0.9
		c0.8,0,1.5,0.3,2.1,0.9c0.5,0.6,0.8,1.4,0.8,2.4c0,0.1,0,0.2,0,0.3h-4.7c0,0.7,0.2,1.2,0.6,1.6c0.4,0.4,0.8,0.5,1.3,0.5
		c0.4,0,0.7-0.1,1-0.3C340.6,394.9,340.8,394.6,341,394.1z M337.5,392.4h3.5c0-0.5-0.2-0.9-0.4-1.2c-0.3-0.4-0.8-0.6-1.3-0.6
		c-0.5,0-0.9,0.2-1.2,0.5C337.7,391.4,337.5,391.8,337.5,392.4z M343.3,396.1v-6.3h1v1c0.2-0.4,0.5-0.7,0.7-0.9
		c0.2-0.1,0.4-0.2,0.7-0.2c0.4,0,0.7,0.1,1.1,0.3l-0.4,1c-0.3-0.2-0.5-0.2-0.8-0.2c-0.2,0-0.4,0.1-0.6,0.2c-0.2,0.1-0.3,0.3-0.4,0.6
		c-0.1,0.4-0.2,0.8-0.2,1.2v3.3H343.3z M350.7,396.1v-8.7h3c0.7,0,1.2,0,1.5,0.1c0.5,0.1,0.9,0.3,1.3,0.6c0.5,0.4,0.8,0.9,1,1.5
		c0.2,0.6,0.3,1.3,0.3,2.1c0,0.7-0.1,1.2-0.2,1.8c-0.2,0.5-0.3,0.9-0.6,1.3c-0.2,0.3-0.5,0.6-0.8,0.8c-0.3,0.2-0.6,0.3-1,0.4
		c-0.4,0.1-0.9,0.1-1.4,0.1H350.7z M351.9,395.1h1.9c0.6,0,1-0.1,1.3-0.2c0.3-0.1,0.6-0.3,0.8-0.4c0.3-0.3,0.5-0.6,0.6-1.1
		c0.2-0.5,0.2-1,0.2-1.7c0-0.9-0.1-1.6-0.4-2.1c-0.3-0.5-0.7-0.8-1.1-1c-0.3-0.1-0.8-0.2-1.5-0.2h-1.8V395.1z M359.3,396.1v-8.7h1.2
		l4.6,6.8v-6.8h1.1v8.7h-1.2l-4.6-6.8v6.8H359.3z M367.5,393.3l1.1-0.1c0.1,0.4,0.2,0.8,0.4,1.1c0.2,0.3,0.5,0.5,0.9,0.7
		c0.4,0.2,0.8,0.3,1.3,0.3c0.4,0,0.8-0.1,1.2-0.2c0.3-0.1,0.6-0.3,0.8-0.5c0.2-0.2,0.2-0.5,0.2-0.7c0-0.3-0.1-0.5-0.2-0.7
		c-0.2-0.2-0.4-0.4-0.8-0.5c-0.2-0.1-0.7-0.2-1.5-0.4c-0.8-0.2-1.4-0.4-1.7-0.5c-0.4-0.2-0.7-0.5-0.9-0.8c-0.2-0.3-0.3-0.7-0.3-1.1
		c0-0.4,0.1-0.8,0.4-1.2c0.3-0.4,0.6-0.7,1.1-0.9c0.5-0.2,1-0.3,1.6-0.3c0.6,0,1.2,0.1,1.7,0.3s0.9,0.5,1.1,0.9
		c0.3,0.4,0.4,0.9,0.4,1.4l-1.1,0.1c-0.1-0.5-0.3-1-0.6-1.2c-0.3-0.3-0.8-0.4-1.5-0.4c-0.7,0-1.2,0.1-1.5,0.4
		c-0.3,0.3-0.5,0.6-0.5,0.9c0,0.3,0.1,0.6,0.3,0.8c0.2,0.2,0.8,0.4,1.7,0.6c0.9,0.2,1.6,0.4,1.9,0.6c0.5,0.2,0.9,0.5,1.1,0.9
		c0.2,0.4,0.4,0.8,0.4,1.2s-0.1,0.9-0.4,1.3c-0.3,0.4-0.6,0.7-1.1,0.9c-0.5,0.2-1,0.3-1.7,0.3c-0.8,0-1.4-0.1-2-0.3
		c-0.5-0.2-0.9-0.6-1.3-1C367.7,394.5,367.5,393.9,367.5,393.3z"/>
	<path d="M311.2,404.1l0.6,0.1c-0.1,0.4-0.3,0.7-0.6,0.9c-0.3,0.2-0.6,0.3-1,0.3c-0.5,0-1-0.2-1.3-0.5c-0.3-0.3-0.5-0.8-0.5-1.4
		c0-0.6,0.2-1.1,0.5-1.4c0.3-0.3,0.7-0.5,1.2-0.5c0.5,0,0.9,0.2,1.2,0.5c0.3,0.3,0.5,0.8,0.5,1.4c0,0,0,0.1,0,0.2h-2.7
		c0,0.4,0.1,0.7,0.3,0.9c0.2,0.2,0.5,0.3,0.8,0.3c0.2,0,0.4-0.1,0.6-0.2C311,404.5,311.1,404.4,311.2,404.1z M309.2,403.1h2
		c0-0.3-0.1-0.5-0.2-0.7c-0.2-0.2-0.5-0.3-0.8-0.3c-0.3,0-0.5,0.1-0.7,0.3C309.3,402.5,309.2,402.8,309.2,403.1z M312.7,405.3v-0.7
		h0.7v0.7H312.7z M314.3,405.6l0.6,0.1c0,0.2,0.1,0.3,0.2,0.4c0.2,0.1,0.4,0.2,0.6,0.2c0.3,0,0.5-0.1,0.7-0.2
		c0.2-0.1,0.3-0.3,0.3-0.5c0-0.1,0-0.4,0-0.8c-0.3,0.3-0.6,0.5-1,0.5c-0.5,0-0.9-0.2-1.2-0.5c-0.3-0.4-0.4-0.8-0.4-1.3
		c0-0.3,0.1-0.7,0.2-1c0.1-0.3,0.3-0.5,0.5-0.7c0.2-0.2,0.5-0.2,0.8-0.2c0.4,0,0.8,0.2,1.1,0.5v-0.4h0.6v3.1c0,0.6-0.1,1-0.2,1.2
		c-0.1,0.2-0.3,0.4-0.5,0.6c-0.3,0.1-0.6,0.2-0.9,0.2c-0.4,0-0.8-0.1-1-0.3C314.4,406.2,314.3,406,314.3,405.6z M314.8,403.4
		c0,0.5,0.1,0.8,0.3,1c0.2,0.2,0.4,0.3,0.7,0.3c0.3,0,0.5-0.1,0.7-0.3c0.2-0.2,0.3-0.6,0.3-1c0-0.4-0.1-0.8-0.3-1s-0.4-0.3-0.7-0.3
		c-0.3,0-0.5,0.1-0.7,0.3C314.9,402.6,314.8,402.9,314.8,403.4z M318.4,405.3v-0.7h0.7v0.7H318.4z M321.9,406.7l-0.1-0.6
		c0.1,0,0.2,0,0.3,0c0.1,0,0.2,0,0.3-0.1c0.1,0,0.2-0.1,0.2-0.2c0-0.1,0.1-0.2,0.2-0.5c0,0,0-0.1,0.1-0.1l-1.4-3.6h0.7l0.8,2.1
		c0.1,0.3,0.2,0.6,0.3,0.8c0.1-0.3,0.2-0.6,0.3-0.8l0.8-2.1h0.6l-1.4,3.7c-0.1,0.4-0.3,0.7-0.3,0.8c-0.1,0.2-0.2,0.4-0.4,0.4
		c-0.1,0.1-0.3,0.1-0.5,0.1C322.2,406.7,322.1,406.7,321.9,406.7z M325.1,403.4c0-0.7,0.2-1.2,0.6-1.5c0.3-0.3,0.7-0.4,1.1-0.4
		c0.5,0,0.9,0.2,1.2,0.5c0.3,0.3,0.5,0.8,0.5,1.4c0,0.5-0.1,0.8-0.2,1.1c-0.1,0.3-0.3,0.5-0.6,0.6c-0.3,0.1-0.6,0.2-0.9,0.2
		c-0.5,0-0.9-0.2-1.2-0.5C325.3,404.5,325.1,404.1,325.1,403.4z M325.8,403.4c0,0.5,0.1,0.8,0.3,1.1c0.2,0.2,0.5,0.3,0.8,0.3
		c0.3,0,0.6-0.1,0.8-0.3c0.2-0.2,0.3-0.6,0.3-1.1c0-0.4-0.1-0.8-0.3-1c-0.2-0.2-0.5-0.3-0.8-0.3c-0.3,0-0.6,0.1-0.8,0.3
		C325.9,402.6,325.8,403,325.8,403.4z M331.5,405.3v-0.5c-0.3,0.4-0.7,0.6-1.2,0.6c-0.2,0-0.4,0-0.6-0.1c-0.2-0.1-0.3-0.2-0.4-0.3
		c-0.1-0.1-0.1-0.3-0.2-0.5c0-0.1,0-0.3,0-0.6v-2.3h0.6v2c0,0.3,0,0.5,0,0.7c0,0.2,0.1,0.3,0.2,0.4c0.1,0.1,0.3,0.1,0.5,0.1
		c0.2,0,0.4,0,0.5-0.1c0.2-0.1,0.3-0.2,0.3-0.4c0.1-0.2,0.1-0.4,0.1-0.7v-2h0.6v3.6H331.5z M332.9,405.3v-3.6h0.5v0.5
		c0.1-0.3,0.3-0.4,0.4-0.5c0.1-0.1,0.2-0.1,0.4-0.1c0.2,0,0.4,0.1,0.6,0.2l-0.2,0.6c-0.2-0.1-0.3-0.1-0.5-0.1c-0.1,0-0.3,0-0.4,0.1
		c-0.1,0.1-0.2,0.2-0.2,0.3c-0.1,0.2-0.1,0.5-0.1,0.7v1.9H332.9z M339.5,403.9l0.6,0.1c-0.1,0.4-0.2,0.7-0.5,1
		c-0.3,0.2-0.6,0.3-1,0.3c-0.5,0-0.9-0.2-1.2-0.5c-0.3-0.3-0.4-0.8-0.4-1.4c0-0.4,0.1-0.7,0.2-1c0.1-0.3,0.3-0.5,0.6-0.7
		c0.3-0.1,0.6-0.2,0.9-0.2c0.4,0,0.7,0.1,1,0.3c0.3,0.2,0.4,0.5,0.5,0.8l-0.6,0.1c-0.1-0.2-0.2-0.4-0.3-0.5
		c-0.1-0.1-0.3-0.2-0.5-0.2c-0.3,0-0.6,0.1-0.8,0.3c-0.2,0.2-0.3,0.6-0.3,1c0,0.5,0.1,0.8,0.3,1.1c0.2,0.2,0.4,0.3,0.7,0.3
		c0.2,0,0.4-0.1,0.6-0.2C339.3,404.5,339.4,404.2,339.5,403.9z M342.8,404.8c-0.2,0.2-0.5,0.3-0.7,0.4c-0.2,0.1-0.4,0.1-0.7,0.1
		c-0.4,0-0.7-0.1-0.9-0.3c-0.2-0.2-0.3-0.4-0.3-0.7c0-0.2,0-0.3,0.1-0.5c0.1-0.1,0.2-0.3,0.3-0.3c0.1-0.1,0.3-0.2,0.4-0.2
		c0.1,0,0.3-0.1,0.5-0.1c0.5-0.1,0.9-0.1,1.1-0.2c0-0.1,0-0.1,0-0.2c0-0.3-0.1-0.4-0.2-0.5c-0.2-0.1-0.4-0.2-0.7-0.2
		c-0.3,0-0.5,0-0.6,0.1c-0.1,0.1-0.2,0.3-0.3,0.5l-0.6-0.1c0.1-0.3,0.1-0.5,0.3-0.6c0.1-0.2,0.3-0.3,0.5-0.4
		c0.2-0.1,0.5-0.1,0.8-0.1s0.6,0,0.8,0.1s0.3,0.2,0.4,0.3c0.1,0.1,0.2,0.2,0.2,0.4c0,0.1,0,0.3,0,0.6v0.8c0,0.6,0,0.9,0,1.1
		s0.1,0.3,0.2,0.4H343C342.9,405.1,342.9,405,342.8,404.8z M342.8,403.4c-0.2,0.1-0.6,0.2-1,0.2c-0.3,0-0.4,0.1-0.5,0.1
		c-0.1,0-0.2,0.1-0.2,0.2c-0.1,0.1-0.1,0.2-0.1,0.3c0,0.2,0.1,0.3,0.2,0.4c0.1,0.1,0.3,0.2,0.5,0.2c0.2,0,0.4-0.1,0.6-0.2
		c0.2-0.1,0.3-0.2,0.4-0.4c0.1-0.1,0.1-0.3,0.1-0.6V403.4z M344.8,405.3h-0.6v-5h0.6v1.8c0.3-0.3,0.6-0.5,1-0.5c0.2,0,0.4,0,0.6,0.1
		c0.2,0.1,0.4,0.2,0.5,0.4c0.1,0.2,0.2,0.4,0.3,0.6c0.1,0.2,0.1,0.5,0.1,0.7c0,0.6-0.2,1.1-0.5,1.4c-0.3,0.3-0.7,0.5-1.1,0.5
		s-0.8-0.2-1-0.5V405.3z M344.8,403.4c0,0.4,0.1,0.7,0.2,0.9c0.2,0.3,0.5,0.5,0.8,0.5c0.3,0,0.5-0.1,0.7-0.3c0.2-0.2,0.3-0.6,0.3-1
		c0-0.5-0.1-0.8-0.3-1c-0.2-0.2-0.4-0.3-0.7-0.3c-0.3,0-0.5,0.1-0.7,0.3C344.9,402.6,344.8,403,344.8,403.4z M348,405.3v-5h0.6v5
		H348z M352,404.1l0.6,0.1c-0.1,0.4-0.3,0.7-0.6,0.9c-0.3,0.2-0.6,0.3-1,0.3c-0.5,0-1-0.2-1.3-0.5c-0.3-0.3-0.5-0.8-0.5-1.4
		c0-0.6,0.2-1.1,0.5-1.4c0.3-0.3,0.7-0.5,1.2-0.5c0.5,0,0.9,0.2,1.2,0.5c0.3,0.3,0.5,0.8,0.5,1.4c0,0,0,0.1,0,0.2H350
		c0,0.4,0.1,0.7,0.3,0.9c0.2,0.2,0.5,0.3,0.8,0.3c0.2,0,0.4-0.1,0.6-0.2C351.8,404.5,351.9,404.4,352,404.1z M350,403.1h2
		c0-0.3-0.1-0.5-0.2-0.7c-0.2-0.2-0.5-0.3-0.8-0.3c-0.3,0-0.5,0.1-0.7,0.3C350.1,402.5,350,402.8,350,403.1z M355.2,405.3v-3.6h0.6
		v0.5c0.1-0.2,0.3-0.3,0.4-0.4c0.2-0.1,0.4-0.2,0.6-0.2c0.3,0,0.5,0.1,0.7,0.2c0.2,0.1,0.3,0.3,0.4,0.5c0.3-0.4,0.7-0.6,1.1-0.6
		c0.4,0,0.6,0.1,0.8,0.3s0.3,0.5,0.3,0.9v2.5h-0.6V403c0-0.2,0-0.4-0.1-0.5c0-0.1-0.1-0.2-0.2-0.3s-0.2-0.1-0.4-0.1
		c-0.3,0-0.5,0.1-0.6,0.3c-0.2,0.2-0.2,0.4-0.2,0.8v2.1h-0.6v-2.4c0-0.3,0-0.5-0.1-0.6c-0.1-0.1-0.3-0.2-0.5-0.2
		c-0.2,0-0.3,0-0.5,0.1c-0.1,0.1-0.3,0.2-0.3,0.4c-0.1,0.2-0.1,0.4-0.1,0.8v1.9H355.2z M360.6,403.4c0-0.7,0.2-1.2,0.6-1.5
		c0.3-0.3,0.7-0.4,1.1-0.4c0.5,0,0.9,0.2,1.2,0.5c0.3,0.3,0.5,0.8,0.5,1.4c0,0.5-0.1,0.8-0.2,1.1c-0.1,0.3-0.3,0.5-0.6,0.6
		c-0.3,0.1-0.6,0.2-0.9,0.2c-0.5,0-0.9-0.2-1.2-0.5C360.8,404.5,360.6,404.1,360.6,403.4z M361.3,403.4c0,0.5,0.1,0.8,0.3,1.1
		c0.2,0.2,0.5,0.3,0.8,0.3c0.3,0,0.6-0.1,0.8-0.3c0.2-0.2,0.3-0.6,0.3-1.1c0-0.4-0.1-0.8-0.3-1s-0.5-0.3-0.8-0.3
		c-0.3,0-0.6,0.1-0.8,0.3C361.4,402.6,361.3,403,361.3,403.4z M367,405.3v-0.5c-0.2,0.4-0.6,0.5-1,0.5c-0.3,0-0.6-0.1-0.8-0.2
		c-0.2-0.2-0.4-0.4-0.6-0.7c-0.1-0.3-0.2-0.6-0.2-1c0-0.4,0.1-0.7,0.2-1c0.1-0.3,0.3-0.5,0.5-0.7c0.2-0.2,0.5-0.2,0.8-0.2
		c0.2,0,0.4,0,0.6,0.1c0.2,0.1,0.3,0.2,0.4,0.4v-1.8h0.6v5H367z M365.1,403.5c0,0.5,0.1,0.8,0.3,1c0.2,0.2,0.4,0.3,0.7,0.3
		c0.3,0,0.5-0.1,0.7-0.3c0.2-0.2,0.3-0.6,0.3-1c0-0.5-0.1-0.9-0.3-1.1c-0.2-0.2-0.4-0.3-0.7-0.3c-0.3,0-0.5,0.1-0.7,0.3
		C365.1,402.6,365.1,403,365.1,403.5z M370.9,404.1l0.6,0.1c-0.1,0.4-0.3,0.7-0.6,0.9c-0.3,0.2-0.6,0.3-1,0.3c-0.5,0-1-0.2-1.3-0.5
		c-0.3-0.3-0.5-0.8-0.5-1.4c0-0.6,0.2-1.1,0.5-1.4c0.3-0.3,0.7-0.5,1.2-0.5c0.5,0,0.9,0.2,1.2,0.5c0.3,0.3,0.5,0.8,0.5,1.4
		c0,0,0,0.1,0,0.2h-2.7c0,0.4,0.1,0.7,0.3,0.9c0.2,0.2,0.5,0.3,0.8,0.3c0.2,0,0.4-0.1,0.6-0.2C370.7,404.5,370.8,404.4,370.9,404.1z
		 M368.9,403.1h2c0-0.3-0.1-0.5-0.2-0.7c-0.2-0.2-0.5-0.3-0.8-0.3c-0.3,0-0.5,0.1-0.7,0.3C369,402.5,368.9,402.8,368.9,403.1z
		 M372.2,405.3v-3.6h0.6v0.5c0.1-0.2,0.3-0.3,0.4-0.4c0.2-0.1,0.4-0.2,0.6-0.2c0.3,0,0.5,0.1,0.7,0.2c0.2,0.1,0.3,0.3,0.4,0.5
		c0.3-0.4,0.7-0.6,1.1-0.6c0.4,0,0.6,0.1,0.8,0.3c0.2,0.2,0.3,0.5,0.3,0.9v2.5h-0.6V403c0-0.2,0-0.4-0.1-0.5c0-0.1-0.1-0.2-0.2-0.3
		c-0.1-0.1-0.2-0.1-0.4-0.1c-0.3,0-0.5,0.1-0.6,0.3c-0.2,0.2-0.2,0.4-0.2,0.8v2.1h-0.6v-2.4c0-0.3,0-0.5-0.1-0.6
		c-0.1-0.1-0.3-0.2-0.5-0.2c-0.2,0-0.3,0-0.5,0.1c-0.1,0.1-0.3,0.2-0.3,0.4c-0.1,0.2-0.1,0.4-0.1,0.8v1.9H372.2z"/>
	<path fill="#CFD4D4" d="M426.8,367.2h44.3v45.1h-44.3V367.2z"/>
	<path fill="#D8DCDC" d="M419.4,359.8h59.1l-7.4,7.4h-44.3L419.4,359.8z"/>
	<path fill="#A5A9A9" d="M419.4,419.7l7.4-7.4h44.3l7.4,7.4H419.4z"/>
	<path fill="#E2E5E5" d="M419.4,359.8l7.4,7.4v45.1l-7.4,7.4V359.8z"/>
	<path fill="#7C7F7F" d="M478.5,359.8v59.9l-7.4-7.4v-45.1L478.5,359.8z"/>
	<path fill-opacity="0" d="M419.4,359.8h59.1v59.9h-59.1V359.8z M426.8,367.2h44.3v45.1h-44.3V367.2z M419.4,359.8l7.4,7.4
		 M419.4,419.7l7.4-7.4 M478.5,359.8l-7.4,7.4 M478.5,419.7l-7.4-7.4"/>
	<path fill="none" stroke="#5B595A" stroke-width="2" stroke-linejoin="round" stroke-miterlimit="10" d="M419.4,359.8h59.1v59.9
		h-59.1V359.8z M426.8,367.2h44.3v45.1h-44.3V367.2z M419.4,359.8l7.4,7.4 M419.4,419.7l7.4-7.4 M478.5,359.8l-7.4,7.4 M478.5,419.7
		l-7.4-7.4"/>
	<path d="M441.7,387.4v-7.3h1v7.3H441.7z M444,385.1l0.9-0.1c0,0.4,0.1,0.7,0.3,0.9c0.2,0.2,0.4,0.4,0.7,0.6
		c0.3,0.1,0.7,0.2,1.1,0.2c0.4,0,0.7-0.1,1-0.2c0.3-0.1,0.5-0.3,0.6-0.4c0.1-0.2,0.2-0.4,0.2-0.6c0-0.2-0.1-0.4-0.2-0.6
		c-0.1-0.2-0.4-0.3-0.7-0.4c-0.2-0.1-0.6-0.2-1.3-0.3c-0.7-0.2-1.1-0.3-1.4-0.5c-0.3-0.2-0.6-0.4-0.8-0.7c-0.2-0.3-0.3-0.6-0.3-0.9
		c0-0.4,0.1-0.7,0.3-1c0.2-0.3,0.5-0.6,0.9-0.7c0.4-0.2,0.9-0.2,1.3-0.2c0.5,0,1,0.1,1.4,0.3c0.4,0.2,0.7,0.4,0.9,0.8
		c0.2,0.3,0.3,0.7,0.4,1.1l-0.9,0.1c-0.1-0.5-0.2-0.8-0.5-1c-0.3-0.2-0.7-0.4-1.3-0.4c-0.6,0-1,0.1-1.3,0.3
		c-0.3,0.2-0.4,0.5-0.4,0.8c0,0.3,0.1,0.5,0.3,0.6c0.2,0.2,0.7,0.3,1.5,0.5c0.8,0.2,1.3,0.3,1.6,0.5c0.4,0.2,0.7,0.4,0.9,0.7
		c0.2,0.3,0.3,0.6,0.3,1c0,0.4-0.1,0.8-0.3,1.1c-0.2,0.3-0.5,0.6-1,0.8c-0.4,0.2-0.9,0.3-1.4,0.3c-0.7,0-1.2-0.1-1.7-0.3
		c-0.4-0.2-0.8-0.5-1.1-0.9C444.2,386,444,385.6,444,385.1z M451.1,387.4v-7.3h2.8c0.5,0,0.9,0,1.1,0.1c0.4,0.1,0.7,0.2,0.9,0.3
		c0.2,0.2,0.4,0.4,0.6,0.7c0.2,0.3,0.2,0.6,0.2,1c0,0.6-0.2,1.1-0.6,1.6c-0.4,0.4-1.1,0.6-2.1,0.6h-1.9v3H451.1z M452.1,383.6h1.9
		c0.6,0,1.1-0.1,1.3-0.3c0.3-0.2,0.4-0.6,0.4-1c0-0.3-0.1-0.6-0.2-0.8c-0.2-0.2-0.4-0.4-0.6-0.4c-0.2,0-0.5-0.1-0.9-0.1h-1.9V383.6z
		"/>
	<path d="M439,399.6v-7.3h2.5c0.6,0,1,0,1.3,0.1c0.4,0.1,0.8,0.3,1.1,0.5c0.4,0.3,0.7,0.7,0.9,1.2c0.2,0.5,0.3,1.1,0.3,1.7
		c0,0.6-0.1,1.1-0.2,1.5c-0.1,0.4-0.3,0.8-0.5,1.1c-0.2,0.3-0.4,0.5-0.7,0.7c-0.2,0.2-0.5,0.3-0.9,0.4c-0.3,0.1-0.7,0.1-1.2,0.1H439
		z M439.9,398.7h1.6c0.5,0,0.9,0,1.1-0.1c0.3-0.1,0.5-0.2,0.7-0.4c0.2-0.2,0.4-0.5,0.5-0.9c0.1-0.4,0.2-0.9,0.2-1.4
		c0-0.8-0.1-1.4-0.4-1.8c-0.2-0.4-0.5-0.7-0.9-0.8c-0.3-0.1-0.7-0.1-1.3-0.1h-1.5V398.7z M446.3,399.6v-7.3h1l3.8,5.7v-5.7h0.9v7.3
		h-1l-3.8-5.7v5.7H446.3z M453.4,397.2l0.9-0.1c0,0.4,0.1,0.7,0.3,0.9c0.2,0.2,0.4,0.4,0.7,0.6c0.3,0.1,0.7,0.2,1.1,0.2
		c0.4,0,0.7-0.1,1-0.2c0.3-0.1,0.5-0.3,0.6-0.4c0.1-0.2,0.2-0.4,0.2-0.6c0-0.2-0.1-0.4-0.2-0.6c-0.1-0.2-0.4-0.3-0.7-0.4
		c-0.2-0.1-0.6-0.2-1.3-0.3c-0.7-0.2-1.1-0.3-1.4-0.5c-0.3-0.2-0.6-0.4-0.8-0.7c-0.2-0.3-0.3-0.6-0.3-0.9c0-0.4,0.1-0.7,0.3-1
		c0.2-0.3,0.5-0.6,0.9-0.7c0.4-0.2,0.9-0.2,1.3-0.2c0.5,0,1,0.1,1.4,0.3c0.4,0.2,0.7,0.4,0.9,0.8c0.2,0.3,0.3,0.7,0.4,1.1l-0.9,0.1
		c-0.1-0.5-0.2-0.8-0.5-1c-0.3-0.2-0.7-0.4-1.3-0.4c-0.6,0-1,0.1-1.3,0.3c-0.3,0.2-0.4,0.5-0.4,0.8c0,0.3,0.1,0.5,0.3,0.6
		c0.2,0.2,0.7,0.3,1.5,0.5c0.8,0.2,1.3,0.3,1.6,0.5c0.4,0.2,0.7,0.4,0.9,0.7c0.2,0.3,0.3,0.6,0.3,1c0,0.4-0.1,0.8-0.3,1.1
		c-0.2,0.3-0.5,0.6-1,0.8c-0.4,0.2-0.9,0.3-1.4,0.3c-0.7,0-1.2-0.1-1.7-0.3c-0.4-0.2-0.8-0.5-1.1-0.9
		C453.5,398.1,453.4,397.7,453.4,397.2z"/>
	<path fill="#FFF2CC" d="M242.3,416.4V446c0,11.6-9.4,21-21,21h-15v6l-12-12l12-12v6h15l0,0c5,0,9-4,9-9v-29.5H242.3z"/>
	<path fill="none" stroke="#5B595A" stroke-width="2" stroke-linejoin="round" stroke-miterlimit="10" d="M242.3,416.4V446
		c0,11.6-9.4,21-21,21h-15v6l-12-12l12-12v6h15l0,0c5,0,9-4,9-9v-29.5H242.3z"/>
	<path fill="#FFF2CC" d="M352.1,417.9v24.7l0,0c0,13.7-11.1,24.7-24.7,24.7H207.7v7.1l-14.1-14.1l14.1-14.1v7.1h119.7l0,0
		c5.9,0,10.6-4.7,10.6-10.6v-24.7H352.1z"/>
	<path fill="none" stroke="#5B595A" stroke-width="2" stroke-linejoin="round" stroke-miterlimit="10" d="M352.1,417.9v24.7l0,0
		c0,13.7-11.1,24.7-24.7,24.7H207.7v7.1l-14.1-14.1l14.1-14.1v7.1h119.7l0,0c5.9,0,10.6-4.7,10.6-10.6v-24.7H352.1z"/>
	<path fill="#FFF2CC" d="M457.5,416.4v24.7l0,0c0,13.7-11.1,24.7-24.7,24.7H207.7v7.1l-14.1-14.1l14.1-14.1v7.1h225.1l0,0
		c5.9,0,10.6-4.7,10.6-10.6v-24.7H457.5z"/>
	<path fill="none" stroke="#5B595A" stroke-width="2" stroke-linejoin="round" stroke-miterlimit="10" d="M457.5,416.4v24.7l0,0
		c0,13.7-11.1,24.7-24.7,24.7H207.7v7.1l-14.1-14.1l14.1-14.1v7.1h225.1l0,0c5.9,0,10.6-4.7,10.6-10.6v-24.7H457.5z"/>
	<path fill="#FFF2CC" d="M564.9,417.9v24.7l0,0c0,13.7-11.1,24.7-24.7,24.7H207.7v7.1l-14.1-14.1l14.1-14.1v7.1h332.5l0,0
		c5.9,0,10.6-4.7,10.6-10.6v-24.7H564.9z"/>
	<path fill="none" stroke="#5B595A" stroke-width="2" stroke-linejoin="round" stroke-miterlimit="10" d="M564.9,417.9v24.7l0,0
		c0,13.7-11.1,24.7-24.7,24.7H207.7v7.1l-14.1-14.1l14.1-14.1v7.1h332.5l0,0c5.9,0,10.6-4.7,10.6-10.6v-24.7H564.9z"/>
	<path fill="#CFD4D4" d="M61.7,471.7h78.9v94.4H61.7V471.7z"/>
	<path fill="#D8DCDC" d="M48.6,458.6h105.2l-13.2,13.2H61.7L48.6,458.6z"/>
	<path fill="#A5A9A9" d="M48.6,579.3l13.2-13.2h78.9l13.2,13.2H48.6z"/>
	<path fill="#E2E5E5" d="M48.6,458.6l13.2,13.2v94.4l-13.2,13.2V458.6z"/>
	<path fill="#7C7F7F" d="M153.8,458.6v120.7l-13.2-13.2v-94.4L153.8,458.6z"/>
	<path fill-opacity="0" d="M48.6,458.6h105.2v120.7H48.6V458.6z M61.7,471.7h78.9v94.4H61.7V471.7z M48.6,458.6l13.2,13.2
		 M48.6,579.3l13.2-13.2 M153.8,458.6l-13.2,13.2 M153.8,579.3l-13.2-13.2"/>
	<path fill="none" stroke="#5B595A" stroke-width="2" stroke-linejoin="round" stroke-miterlimit="10" d="M48.6,458.6h105.2v120.7
		H48.6V458.6z M61.7,471.7h78.9v94.4H61.7V471.7z M48.6,458.6l13.2,13.2 M48.6,579.3l13.2-13.2 M153.8,458.6l-13.2,13.2
		 M153.8,579.3l-13.2-13.2"/>
	<path d="M68.3,523.3v-8.7h3.3c0.7,0,1.2,0.1,1.6,0.3c0.4,0.2,0.7,0.4,0.9,0.8s0.3,0.7,0.3,1.1c0,0.4-0.1,0.7-0.3,1.1
		c-0.2,0.3-0.5,0.6-0.9,0.8c0.5,0.2,0.9,0.4,1.2,0.8c0.3,0.4,0.4,0.8,0.4,1.3c0,0.4-0.1,0.8-0.3,1.1c-0.2,0.3-0.4,0.6-0.6,0.8
		c-0.3,0.2-0.6,0.3-1,0.4c-0.4,0.1-0.8,0.1-1.4,0.1H68.3z M69.5,518.3h1.9c0.5,0,0.9,0,1.1-0.1c0.3-0.1,0.5-0.2,0.7-0.4
		c0.2-0.2,0.2-0.5,0.2-0.8c0-0.3-0.1-0.5-0.2-0.8c-0.1-0.2-0.3-0.4-0.6-0.4c-0.3-0.1-0.7-0.1-1.3-0.1h-1.7V518.3z M69.5,522.3h2.2
		c0.4,0,0.6,0,0.8,0c0.3,0,0.5-0.1,0.7-0.2c0.2-0.1,0.3-0.3,0.4-0.5c0.1-0.2,0.2-0.5,0.2-0.7c0-0.3-0.1-0.6-0.2-0.8
		s-0.4-0.4-0.7-0.5c-0.3-0.1-0.7-0.1-1.3-0.1h-2V522.3z M76.2,523.3V517h1v1c0.2-0.4,0.5-0.7,0.7-0.9c0.2-0.1,0.4-0.2,0.7-0.2
		c0.4,0,0.7,0.1,1.1,0.3l-0.4,1c-0.3-0.2-0.5-0.2-0.8-0.2c-0.2,0-0.4,0.1-0.6,0.2c-0.2,0.1-0.3,0.3-0.4,0.6
		c-0.1,0.4-0.2,0.8-0.2,1.2v3.3H76.2z M79.8,520.2c0-1.2,0.3-2,1-2.6c0.5-0.5,1.2-0.7,2-0.7c0.9,0,1.6,0.3,2.1,0.9
		c0.6,0.6,0.8,1.3,0.8,2.3c0,0.8-0.1,1.4-0.4,1.9c-0.2,0.5-0.6,0.8-1.1,1.1c-0.5,0.3-1,0.4-1.5,0.4c-0.9,0-1.6-0.3-2.1-0.8
		C80,522.1,79.8,521.2,79.8,520.2z M80.8,520.2c0,0.8,0.2,1.4,0.5,1.8c0.4,0.4,0.8,0.6,1.3,0.6c0.5,0,1-0.2,1.3-0.6
		c0.4-0.4,0.5-1,0.5-1.8c0-0.8-0.2-1.4-0.5-1.8c-0.4-0.4-0.8-0.6-1.3-0.6c-0.5,0-1,0.2-1.3,0.6C81,518.8,80.8,519.4,80.8,520.2z
		 M87.9,523.3L86,517h1.1l1,3.6l0.4,1.4c0-0.1,0.1-0.5,0.3-1.3l1-3.7h1.1l0.9,3.6l0.3,1.2l0.4-1.2l1.1-3.6h1l-2,6.3h-1.1l-1-3.8
		l-0.2-1.1l-1.3,4.8H87.9z M94.9,521.5l1.1-0.2c0.1,0.4,0.2,0.8,0.5,1c0.3,0.2,0.7,0.3,1.1,0.3c0.5,0,0.9-0.1,1.1-0.3
		c0.2-0.2,0.4-0.4,0.4-0.7c0-0.2-0.1-0.4-0.3-0.6c-0.1-0.1-0.5-0.2-1.1-0.4c-0.8-0.2-1.3-0.4-1.6-0.5c-0.3-0.1-0.5-0.3-0.7-0.6
		c-0.2-0.3-0.2-0.5-0.2-0.8c0-0.3,0.1-0.5,0.2-0.8c0.1-0.2,0.3-0.4,0.5-0.6c0.2-0.1,0.4-0.2,0.7-0.3c0.3-0.1,0.6-0.1,0.9-0.1
		c0.5,0,0.9,0.1,1.3,0.2c0.4,0.1,0.6,0.3,0.8,0.6c0.2,0.2,0.3,0.6,0.4,1l-1,0.1c0-0.3-0.2-0.6-0.4-0.7c-0.2-0.2-0.5-0.3-1-0.3
		c-0.5,0-0.8,0.1-1,0.2c-0.2,0.2-0.3,0.3-0.3,0.6c0,0.1,0,0.3,0.1,0.4c0.1,0.1,0.2,0.2,0.4,0.3c0.1,0,0.4,0.1,0.9,0.3
		c0.8,0.2,1.3,0.4,1.6,0.5s0.5,0.3,0.7,0.6c0.2,0.2,0.3,0.6,0.3,0.9c0,0.4-0.1,0.7-0.3,1c-0.2,0.3-0.5,0.6-0.9,0.7
		c-0.4,0.2-0.8,0.2-1.3,0.2c-0.8,0-1.4-0.2-1.9-0.5C95.3,522.6,95,522.1,94.9,521.5z M105.6,521.3l1.1,0.1c-0.2,0.6-0.5,1.1-1,1.5
		c-0.5,0.4-1.1,0.5-1.8,0.5c-0.9,0-1.6-0.3-2.2-0.8c-0.5-0.6-0.8-1.4-0.8-2.4c0-1.1,0.3-1.9,0.8-2.5c0.5-0.6,1.3-0.9,2.1-0.9
		c0.8,0,1.5,0.3,2.1,0.9c0.5,0.6,0.8,1.4,0.8,2.4c0,0.1,0,0.2,0,0.3H102c0,0.7,0.2,1.2,0.6,1.6c0.4,0.4,0.8,0.5,1.3,0.5
		c0.4,0,0.7-0.1,1-0.3C105.2,522.1,105.4,521.8,105.6,521.3z M102.1,519.6h3.5c0-0.5-0.2-0.9-0.4-1.2c-0.3-0.4-0.8-0.6-1.3-0.6
		c-0.5,0-0.9,0.2-1.2,0.5C102.3,518.6,102.1,519,102.1,519.6z M107.9,523.3V517h1v1c0.2-0.4,0.5-0.7,0.7-0.9
		c0.2-0.1,0.4-0.2,0.7-0.2c0.4,0,0.7,0.1,1.1,0.3l-0.4,1c-0.3-0.2-0.5-0.2-0.8-0.2c-0.2,0-0.4,0.1-0.6,0.2c-0.2,0.1-0.3,0.3-0.4,0.6
		c-0.1,0.4-0.2,0.8-0.2,1.2v3.3H107.9z"/>
	<path fill-opacity="0" d="M25.5,444.2h162.8v145H25.5V444.2z"/>
	<g transform="matrix(0.40021312643536744 0.0 0.0 0.40398268812284693 39.98950131233596 435.60256725721786)">
		<defs>
			<rect id="SVGID_1_" x="25.5" y="444.2" width="162.8" height="145"/>
		</defs>
		<clipPath id="SVGID_2_">
			<use xlink:href="#SVGID_1_"  overflow="visible"/>
		</clipPath>
		<g clip-path="url(#SVGID_2_)" enable-background="new    ">
			
				<image overflow="visible" width="638" height="563" xlink:href="D4E4EA23E46B2E17.png"  transform="matrix(0.2551 0 0 0.2575 25.4933 444.1966)">
			</image>
		</g>
	</g>
	<path fill="#C9DAF8" d="M33.1,342.9L33.1,342.9c0-3.2,2.6-5.9,5.9-5.9h109c1.6,0,3.1,0.6,4.2,1.7c1.1,1.1,1.7,2.6,1.7,4.2v23.5
		c0,3.2-2.6,5.9-5.9,5.9h-109c-3.2,0-5.9-2.6-5.9-5.9L33.1,342.9z"/>
	<path fill="none" stroke="#5B595A" stroke-width="2" stroke-linejoin="round" stroke-miterlimit="10" d="M33.1,342.9L33.1,342.9
		c0-3.2,2.6-5.9,5.9-5.9h109c1.6,0,3.1,0.6,4.2,1.7c1.1,1.1,1.7,2.6,1.7,4.2v23.5c0,3.2-2.6,5.9-5.9,5.9h-109
		c-3.2,0-5.9-2.6-5.9-5.9L33.1,342.9z"/>
	<path d="M42.6,352.3l-1.9-7.3h1l1.1,4.8c0.1,0.5,0.2,1,0.3,1.5c0.2-0.8,0.3-1.2,0.3-1.3l1.4-4.9h1.2l1,3.7c0.3,0.9,0.5,1.8,0.6,2.6
		c0.1-0.5,0.2-1,0.4-1.6l1.1-4.7h1l-2,7.3h-0.9l-1.5-5.6c-0.1-0.5-0.2-0.8-0.2-0.9c-0.1,0.3-0.1,0.6-0.2,0.9l-1.6,5.6H42.6z
		 M50.8,352.3V345h0.9v2.6c0.4-0.5,0.9-0.7,1.6-0.7c0.4,0,0.7,0.1,1,0.2c0.3,0.2,0.5,0.4,0.6,0.6c0.1,0.3,0.2,0.7,0.2,1.2v3.4h-0.9
		V349c0-0.4-0.1-0.8-0.3-1c-0.2-0.2-0.5-0.3-0.8-0.3c-0.3,0-0.5,0.1-0.7,0.2c-0.2,0.1-0.4,0.3-0.5,0.6c-0.1,0.2-0.1,0.6-0.1,1v2.9
		H50.8z M60.1,350.6l0.9,0.1c-0.1,0.5-0.4,1-0.8,1.3c-0.4,0.3-0.9,0.4-1.5,0.4c-0.8,0-1.4-0.2-1.8-0.7s-0.7-1.1-0.7-2
		c0-0.9,0.2-1.6,0.7-2.1s1.1-0.7,1.8-0.7c0.7,0,1.3,0.2,1.7,0.7c0.5,0.5,0.7,1.2,0.7,2c0,0.1,0,0.1,0,0.2h-3.9c0,0.6,0.2,1,0.5,1.3
		c0.3,0.3,0.7,0.5,1.1,0.5c0.3,0,0.6-0.1,0.8-0.3C59.8,351.3,60,351,60.1,350.6z M57.2,349.2h2.9c0-0.4-0.2-0.8-0.3-1
		c-0.3-0.3-0.7-0.5-1.1-0.5c-0.4,0-0.8,0.1-1,0.4C57.4,348.3,57.2,348.7,57.2,349.2z M62.2,352.3V347H63v0.8
		c0.2-0.4,0.4-0.6,0.6-0.7s0.4-0.2,0.6-0.2c0.3,0,0.6,0.1,0.9,0.3l-0.3,0.8c-0.2-0.1-0.4-0.2-0.7-0.2c-0.2,0-0.4,0.1-0.5,0.2
		c-0.2,0.1-0.3,0.3-0.3,0.5c-0.1,0.3-0.1,0.7-0.1,1v2.8H62.2z M69.2,350.6l0.9,0.1c-0.1,0.5-0.4,1-0.8,1.3c-0.4,0.3-0.9,0.4-1.5,0.4
		c-0.8,0-1.4-0.2-1.8-0.7c-0.5-0.5-0.7-1.1-0.7-2c0-0.9,0.2-1.6,0.7-2.1c0.5-0.5,1.1-0.7,1.8-0.7c0.7,0,1.3,0.2,1.7,0.7
		c0.5,0.5,0.7,1.2,0.7,2c0,0.1,0,0.1,0,0.2h-3.9c0,0.6,0.2,1,0.5,1.3c0.3,0.3,0.7,0.5,1.1,0.5c0.3,0,0.6-0.1,0.8-0.3
		C68.9,351.3,69.1,351,69.2,350.6z M66.2,349.2h2.9c0-0.4-0.2-0.8-0.3-1c-0.3-0.3-0.7-0.5-1.1-0.5c-0.4,0-0.8,0.1-1,0.4
		C66.4,348.3,66.3,348.7,66.2,349.2z M74.1,346v-1H75v1H74.1z M74.1,352.3V347H75v5.3H74.1z M76,350.7l0.9-0.1
		c0,0.4,0.2,0.6,0.4,0.8c0.2,0.2,0.6,0.3,1,0.3c0.4,0,0.7-0.1,0.9-0.2c0.2-0.2,0.3-0.4,0.3-0.6c0-0.2-0.1-0.4-0.3-0.5
		c-0.1-0.1-0.4-0.2-0.9-0.3c-0.7-0.2-1.1-0.3-1.4-0.4c-0.3-0.1-0.4-0.3-0.6-0.5c-0.1-0.2-0.2-0.4-0.2-0.7c0-0.2,0.1-0.5,0.2-0.7
		s0.3-0.4,0.4-0.5c0.1-0.1,0.3-0.2,0.6-0.3c0.2-0.1,0.5-0.1,0.8-0.1c0.4,0,0.8,0.1,1.1,0.2s0.5,0.3,0.7,0.5c0.2,0.2,0.3,0.5,0.3,0.8
		l-0.9,0.1c0-0.3-0.2-0.5-0.3-0.6s-0.5-0.2-0.8-0.2c-0.4,0-0.7,0.1-0.9,0.2c-0.2,0.1-0.3,0.3-0.3,0.5c0,0.1,0,0.2,0.1,0.3
		s0.2,0.2,0.3,0.2c0.1,0,0.4,0.1,0.8,0.2c0.6,0.2,1.1,0.3,1.3,0.4c0.3,0.1,0.4,0.3,0.6,0.5c0.1,0.2,0.2,0.5,0.2,0.8
		c0,0.3-0.1,0.6-0.3,0.8c-0.2,0.3-0.4,0.5-0.8,0.6c-0.3,0.1-0.7,0.2-1.1,0.2c-0.7,0-1.2-0.1-1.6-0.4C76.3,351.7,76.1,351.3,76,350.7
		z M85.3,352.3l-1.6-5.3h0.9l0.8,3l0.3,1.1c0-0.1,0.1-0.4,0.3-1.1l0.8-3.1h0.9l0.8,3.1l0.3,1l0.3-1L90,347h0.9l-1.7,5.3h-0.9
		l-0.8-3.2l-0.2-0.9l-1.1,4.1H85.3z M92.6,352.3L91,347h0.9l0.8,3l0.3,1.1c0-0.1,0.1-0.4,0.3-1.1l0.8-3.1h0.9l0.8,3.1l0.3,1l0.3-1
		l0.9-3.1h0.9l-1.7,5.3h-0.9l-0.8-3.2l-0.2-0.9l-1.1,4.1H92.6z M100,352.3l-1.6-5.3h0.9l0.8,3l0.3,1.1c0-0.1,0.1-0.4,0.3-1.1
		l0.8-3.1h0.9l0.8,3.1l0.3,1l0.3-1l0.9-3.1h0.9l-1.7,5.3H103l-0.8-3.2l-0.2-0.9l-1.1,4.1H100z M106.6,352.3v-1h1v1H106.6z"/>
	<path d="M41.4,364.4v-4.6h-0.8v-0.7h0.8v-0.6c0-0.4,0-0.6,0.1-0.8c0.1-0.2,0.2-0.4,0.4-0.6c0.2-0.1,0.5-0.2,0.9-0.2
		c0.3,0,0.5,0,0.8,0.1l-0.1,0.8c-0.2,0-0.4,0-0.5,0c-0.3,0-0.5,0.1-0.6,0.2c-0.1,0.1-0.2,0.3-0.2,0.6v0.5h1v0.7h-1v4.6H41.4z
		 M47.5,363.8c-0.3,0.3-0.7,0.5-1,0.6c-0.3,0.1-0.6,0.2-1,0.2c-0.6,0-1-0.1-1.3-0.4c-0.3-0.3-0.5-0.6-0.5-1.1c0-0.3,0.1-0.5,0.2-0.7
		c0.1-0.2,0.3-0.4,0.5-0.5c0.2-0.1,0.4-0.2,0.6-0.3c0.2,0,0.4-0.1,0.8-0.1c0.7-0.1,1.3-0.2,1.6-0.3c0-0.1,0-0.2,0-0.2
		c0-0.4-0.1-0.6-0.2-0.8c-0.2-0.2-0.6-0.3-1-0.3c-0.4,0-0.7,0.1-0.9,0.2c-0.2,0.1-0.3,0.4-0.4,0.8l-0.9-0.1c0.1-0.4,0.2-0.7,0.4-0.9
		c0.2-0.2,0.5-0.4,0.8-0.5c0.3-0.1,0.7-0.2,1.2-0.2s0.8,0.1,1.1,0.2c0.3,0.1,0.5,0.2,0.6,0.4c0.1,0.2,0.2,0.4,0.3,0.6
		c0,0.2,0,0.4,0,0.8v1.2c0,0.8,0,1.4,0,1.6c0,0.2,0.1,0.4,0.2,0.6h-0.9C47.6,364.2,47.5,364,47.5,363.8z M47.4,361.8
		c-0.3,0.1-0.8,0.2-1.5,0.3c-0.4,0.1-0.6,0.1-0.8,0.2s-0.3,0.2-0.4,0.3c-0.1,0.1-0.1,0.3-0.1,0.4c0,0.2,0.1,0.4,0.3,0.6
		c0.2,0.2,0.5,0.2,0.8,0.2s0.7-0.1,0.9-0.2c0.3-0.2,0.5-0.4,0.6-0.6c0.1-0.2,0.1-0.5,0.1-0.9V361.8z M53.2,362.5l0.9,0.1
		c-0.1,0.6-0.3,1.1-0.7,1.4c-0.4,0.3-0.9,0.5-1.5,0.5c-0.7,0-1.3-0.2-1.8-0.7c-0.4-0.5-0.7-1.2-0.7-2c0-0.6,0.1-1.1,0.3-1.5
		c0.2-0.4,0.5-0.8,0.9-1c0.4-0.2,0.8-0.3,1.3-0.3c0.6,0,1,0.1,1.4,0.4c0.4,0.3,0.6,0.7,0.7,1.2l-0.9,0.1c-0.1-0.4-0.2-0.6-0.4-0.8
		c-0.2-0.2-0.5-0.3-0.8-0.3c-0.5,0-0.8,0.2-1.1,0.5c-0.3,0.3-0.4,0.8-0.4,1.5c0,0.7,0.1,1.2,0.4,1.6c0.3,0.3,0.6,0.5,1.1,0.5
		c0.4,0,0.6-0.1,0.9-0.3C52.9,363.3,53.1,362.9,53.2,362.5z M58.4,362.7l0.9,0.1c-0.1,0.5-0.4,1-0.8,1.3c-0.4,0.3-0.9,0.4-1.5,0.4
		c-0.8,0-1.4-0.2-1.8-0.7c-0.5-0.5-0.7-1.1-0.7-2c0-0.9,0.2-1.6,0.7-2.1c0.5-0.5,1.1-0.7,1.8-0.7c0.7,0,1.3,0.2,1.7,0.7
		c0.5,0.5,0.7,1.2,0.7,2c0,0.1,0,0.1,0,0.2h-3.9c0,0.6,0.2,1,0.5,1.3c0.3,0.3,0.7,0.5,1.1,0.5c0.3,0,0.6-0.1,0.8-0.3
		C58.1,363.4,58.3,363.1,58.4,362.7z M55.5,361.3h2.9c0-0.4-0.2-0.8-0.3-1c-0.3-0.3-0.7-0.5-1.1-0.5c-0.4,0-0.8,0.1-1,0.4
		C55.7,360.4,55.5,360.8,55.5,361.3z M61.3,364.4h-0.8v-7.3h0.9v2.6c0.4-0.5,0.9-0.7,1.5-0.7c0.3,0,0.6,0.1,0.9,0.2
		c0.3,0.1,0.5,0.3,0.7,0.5c0.2,0.2,0.3,0.5,0.4,0.9c0.1,0.3,0.2,0.7,0.2,1.1c0,0.9-0.2,1.6-0.7,2.1c-0.4,0.5-1,0.7-1.6,0.7
		c-0.6,0-1.1-0.3-1.5-0.8V364.4z M61.3,361.7c0,0.6,0.1,1.1,0.3,1.4c0.3,0.5,0.7,0.7,1.1,0.7c0.4,0,0.7-0.2,1-0.5
		c0.3-0.3,0.4-0.9,0.4-1.5c0-0.7-0.1-1.2-0.4-1.5c-0.3-0.3-0.6-0.5-1-0.5c-0.4,0-0.7,0.2-1,0.5C61.4,360.6,61.3,361.1,61.3,361.7z
		 M65.8,361.8c0-1,0.3-1.7,0.8-2.2c0.5-0.4,1-0.6,1.7-0.6c0.7,0,1.3,0.2,1.8,0.7c0.5,0.5,0.7,1.1,0.7,2c0,0.7-0.1,1.2-0.3,1.6
		s-0.5,0.7-0.9,0.9c-0.4,0.2-0.8,0.3-1.3,0.3c-0.7,0-1.3-0.2-1.8-0.7C66,363.4,65.8,362.7,65.8,361.8z M66.7,361.8
		c0,0.7,0.1,1.2,0.4,1.5c0.3,0.3,0.7,0.5,1.1,0.5s0.8-0.2,1.1-0.5c0.3-0.3,0.4-0.9,0.4-1.6c0-0.7-0.1-1.1-0.4-1.5
		c-0.3-0.3-0.7-0.5-1.1-0.5s-0.8,0.2-1.1,0.5C66.9,360.6,66.7,361.1,66.7,361.8z M71.5,361.8c0-1,0.3-1.7,0.8-2.2
		c0.5-0.4,1-0.6,1.7-0.6c0.7,0,1.3,0.2,1.8,0.7c0.5,0.5,0.7,1.1,0.7,2c0,0.7-0.1,1.2-0.3,1.6s-0.5,0.7-0.9,0.9
		c-0.4,0.2-0.8,0.3-1.3,0.3c-0.7,0-1.3-0.2-1.8-0.7C71.7,363.4,71.5,362.7,71.5,361.8z M72.4,361.8c0,0.7,0.1,1.2,0.4,1.5
		c0.3,0.3,0.7,0.5,1.1,0.5c0.4,0,0.8-0.2,1.1-0.5c0.3-0.3,0.4-0.9,0.4-1.6c0-0.7-0.1-1.1-0.4-1.5c-0.3-0.3-0.7-0.5-1.1-0.5
		c-0.4,0-0.8,0.2-1.1,0.5C72.6,360.6,72.4,361.1,72.4,361.8z M77.5,364.4v-7.3h0.9v4.2l2.1-2.2h1.2l-2,2l2.2,3.3h-1.1l-1.7-2.7
		l-0.6,0.6v2.1H77.5z M82.8,364.4v-1h1v1H82.8z M88.9,362.5l0.9,0.1c-0.1,0.6-0.3,1.1-0.7,1.4c-0.4,0.3-0.9,0.5-1.5,0.5
		c-0.7,0-1.3-0.2-1.8-0.7c-0.4-0.5-0.7-1.2-0.7-2c0-0.6,0.1-1.1,0.3-1.5c0.2-0.4,0.5-0.8,0.9-1c0.4-0.2,0.8-0.3,1.3-0.3
		c0.6,0,1,0.1,1.4,0.4c0.4,0.3,0.6,0.7,0.7,1.2l-0.9,0.1c-0.1-0.4-0.2-0.6-0.4-0.8c-0.2-0.2-0.5-0.3-0.8-0.3c-0.5,0-0.8,0.2-1.1,0.5
		c-0.3,0.3-0.4,0.8-0.4,1.5c0,0.7,0.1,1.2,0.4,1.6c0.3,0.3,0.6,0.5,1.1,0.5c0.4,0,0.6-0.1,0.9-0.3C88.7,363.3,88.8,362.9,88.9,362.5
		z M90.2,361.8c0-1,0.3-1.7,0.8-2.2c0.5-0.4,1-0.6,1.7-0.6c0.7,0,1.3,0.2,1.8,0.7c0.5,0.5,0.7,1.1,0.7,2c0,0.7-0.1,1.2-0.3,1.6
		s-0.5,0.7-0.9,0.9c-0.4,0.2-0.8,0.3-1.3,0.3c-0.7,0-1.3-0.2-1.8-0.7C90.4,363.4,90.2,362.7,90.2,361.8z M91.1,361.8
		c0,0.7,0.1,1.2,0.4,1.5c0.3,0.3,0.7,0.5,1.1,0.5s0.8-0.2,1.1-0.5c0.3-0.3,0.4-0.9,0.4-1.6c0-0.7-0.1-1.1-0.4-1.5
		c-0.3-0.3-0.7-0.5-1.1-0.5s-0.8,0.2-1.1,0.5C91.3,360.6,91.1,361.1,91.1,361.8z M96.2,364.4v-5.3H97v0.7c0.2-0.3,0.4-0.5,0.7-0.6
		c0.3-0.2,0.6-0.2,0.9-0.2c0.4,0,0.7,0.1,1,0.2c0.3,0.2,0.4,0.4,0.5,0.7c0.4-0.6,1-0.9,1.6-0.9c0.5,0,0.9,0.1,1.2,0.4
		c0.3,0.3,0.4,0.7,0.4,1.3v3.6h-0.9v-3.3c0-0.4,0-0.6-0.1-0.8c-0.1-0.2-0.2-0.3-0.3-0.4c-0.2-0.1-0.3-0.1-0.5-0.1
		c-0.4,0-0.7,0.1-0.9,0.4c-0.2,0.2-0.4,0.6-0.4,1.2v3.1h-0.9V361c0-0.4-0.1-0.7-0.2-0.9s-0.4-0.3-0.7-0.3c-0.3,0-0.5,0.1-0.7,0.2
		c-0.2,0.1-0.4,0.3-0.5,0.6c-0.1,0.3-0.1,0.6-0.1,1.1v2.7H96.2z M106.4,362.6c0-0.1,0-0.2,0-0.3c0-0.4,0-0.7,0.1-0.9
		c0.1-0.2,0.2-0.4,0.3-0.6c0.1-0.1,0.3-0.3,0.6-0.6c0.3-0.3,0.5-0.5,0.6-0.7c0.1-0.2,0.1-0.3,0.1-0.5c0-0.3-0.1-0.7-0.4-0.9
		s-0.6-0.4-1-0.4c-0.4,0-0.7,0.1-1,0.4c-0.3,0.2-0.4,0.6-0.5,1.1l-0.9-0.1c0.1-0.7,0.3-1.2,0.7-1.6c0.4-0.4,1-0.5,1.6-0.5
		c0.7,0,1.3,0.2,1.7,0.6c0.4,0.4,0.6,0.9,0.6,1.4c0,0.3-0.1,0.6-0.2,0.9c-0.1,0.3-0.4,0.6-0.9,1c-0.3,0.3-0.5,0.5-0.6,0.6
		c-0.1,0.1-0.2,0.3-0.2,0.4c0,0.2-0.1,0.4-0.1,0.8H106.4z M106.3,364.4v-1h1v1H106.3z"/>
	<path fill="#C9DAF8" d="M263,382h18.3v-6.5l12.9,12.9l-12.9,12.9v-6.5H263V382z"/>
	<path fill="none" stroke="#5B595A" stroke-width="2" stroke-linejoin="round" stroke-miterlimit="10" d="M263,382h18.3v-6.5
		l12.9,12.9l-12.9,12.9v-6.5H263V382z"/>
	<path fill="#C9DAF8" d="M95.8,444.2v-29.8l0,0c0-17.7,14.4-32.1,32.1-32.1h47.3v-11.4l18.3,20.6L175.2,412v-11.4h-47.3l0,0
		c-7.6,0-13.7,6.2-13.7,13.7v29.8H95.8z"/>
	<path fill="none" stroke="#5B595A" stroke-width="2" stroke-linejoin="round" stroke-miterlimit="10" d="M95.8,444.2v-29.8l0,0
		c0-17.7,14.4-32.1,32.1-32.1h47.3v-11.4l18.3,20.6L175.2,412v-11.4h-47.3l0,0c-7.6,0-13.7,6.2-13.7,13.7v29.8H95.8z"/>
	<path fill="#FFF2CC" d="M192.8,459.7l14.7-14.7v7.4H528V467H207.6v7.4L192.8,459.7z"/>
	<path fill="none" stroke="#5B595A" stroke-width="2" stroke-linejoin="round" stroke-miterlimit="10" d="M192.8,459.7l14.7-14.7
		v7.4H528V467H207.6v7.4L192.8,459.7z"/>
	<path d="M298,464.1l3.3-8.7h1.2l3.5,8.7h-1.3l-1-2.6h-3.6l-0.9,2.6H298z M300.5,460.5h2.9l-0.9-2.4c-0.3-0.7-0.5-1.3-0.6-1.8
		c-0.1,0.6-0.3,1.1-0.5,1.7L300.5,460.5z M306.7,464.1v-6.3h1v0.9c0.5-0.7,1.1-1,2-1c0.4,0,0.7,0.1,1,0.2c0.3,0.1,0.6,0.3,0.7,0.5
		c0.2,0.2,0.3,0.5,0.3,0.8c0,0.2,0.1,0.5,0.1,1v3.9h-1.1v-3.8c0-0.4,0-0.8-0.1-1c-0.1-0.2-0.2-0.4-0.4-0.5c-0.2-0.1-0.5-0.2-0.7-0.2
		c-0.5,0-0.8,0.1-1.2,0.4c-0.3,0.3-0.5,0.8-0.5,1.6v3.4H306.7z M312.9,462.2l1.1-0.2c0.1,0.4,0.2,0.8,0.5,1c0.3,0.2,0.7,0.3,1.1,0.3
		c0.5,0,0.9-0.1,1.1-0.3c0.2-0.2,0.4-0.4,0.4-0.7c0-0.2-0.1-0.4-0.3-0.6c-0.1-0.1-0.5-0.2-1.1-0.4c-0.8-0.2-1.3-0.4-1.6-0.5
		c-0.3-0.1-0.5-0.3-0.7-0.6c-0.2-0.3-0.2-0.5-0.2-0.8c0-0.3,0.1-0.5,0.2-0.8c0.1-0.2,0.3-0.4,0.5-0.6c0.2-0.1,0.4-0.2,0.7-0.3
		c0.3-0.1,0.6-0.1,0.9-0.1c0.5,0,0.9,0.1,1.3,0.2c0.4,0.1,0.6,0.3,0.8,0.6c0.2,0.2,0.3,0.6,0.4,1l-1,0.1c0-0.3-0.2-0.6-0.4-0.7
		c-0.2-0.2-0.5-0.3-1-0.3c-0.5,0-0.8,0.1-1,0.2c-0.2,0.2-0.3,0.3-0.3,0.6c0,0.1,0,0.3,0.1,0.4c0.1,0.1,0.2,0.2,0.4,0.3
		c0.1,0,0.4,0.1,0.9,0.3c0.8,0.2,1.3,0.4,1.6,0.5c0.3,0.1,0.5,0.3,0.7,0.6c0.2,0.2,0.3,0.6,0.3,0.9c0,0.4-0.1,0.7-0.3,1
		c-0.2,0.3-0.5,0.6-0.9,0.7c-0.4,0.2-0.8,0.2-1.3,0.2c-0.8,0-1.4-0.2-1.9-0.5C313.3,463.4,313,462.9,312.9,462.2z M320.4,464.1
		l-1.9-6.3h1.1l1,3.6l0.4,1.4c0-0.1,0.1-0.5,0.3-1.3l1-3.7h1.1l0.9,3.6l0.3,1.2l0.4-1.2l1.1-3.6h1l-2,6.3h-1.1l-1-3.8l-0.2-1.1
		l-1.3,4.8H320.4z M332.2,462.1l1.1,0.1c-0.2,0.6-0.5,1.1-1,1.5c-0.5,0.4-1.1,0.5-1.8,0.5c-0.9,0-1.6-0.3-2.2-0.8
		c-0.5-0.6-0.8-1.4-0.8-2.4c0-1.1,0.3-1.9,0.8-2.5c0.5-0.6,1.3-0.9,2.1-0.9c0.8,0,1.5,0.3,2.1,0.9c0.5,0.6,0.8,1.4,0.8,2.4
		c0,0.1,0,0.2,0,0.3h-4.7c0,0.7,0.2,1.2,0.6,1.6s0.8,0.5,1.3,0.5c0.4,0,0.7-0.1,1-0.3C331.8,462.8,332,462.5,332.2,462.1z
		 M328.7,460.3h3.5c0-0.5-0.2-0.9-0.4-1.2c-0.3-0.4-0.8-0.6-1.3-0.6c-0.5,0-0.9,0.2-1.2,0.5C328.9,459.4,328.7,459.8,328.7,460.3z
		 M334.5,464.1v-6.3h1v1c0.2-0.4,0.5-0.7,0.7-0.9c0.2-0.1,0.4-0.2,0.7-0.2c0.4,0,0.7,0.1,1.1,0.3l-0.4,1c-0.3-0.2-0.5-0.2-0.8-0.2
		c-0.2,0-0.4,0.1-0.6,0.2c-0.2,0.1-0.3,0.3-0.4,0.6c-0.1,0.4-0.2,0.8-0.2,1.2v3.3H334.5z M338.7,459v-1.2h1.2v1.2H338.7z
		 M338.7,464.1v-1.2h1.2v1.2H338.7z M352.1,464.1H351v-6.8c-0.3,0.2-0.6,0.5-1,0.7c-0.4,0.2-0.8,0.4-1.1,0.5v-1
		c0.6-0.3,1.1-0.6,1.6-1s0.8-0.8,0.9-1.2h0.7V464.1z M354.7,456.6v-1h5.6v0.8c-0.6,0.6-1.1,1.4-1.6,2.3c-0.5,1-1,2-1.3,3
		c-0.2,0.7-0.3,1.5-0.4,2.4h-1.1c0-0.7,0.1-1.5,0.4-2.5c0.3-1,0.6-1.9,1.1-2.8c0.5-0.9,1-1.7,1.5-2.3H354.7z M361.3,461.8l1.1-0.1
		c0.1,0.6,0.3,1,0.6,1.3c0.3,0.3,0.7,0.4,1.1,0.4c0.5,0,0.9-0.2,1.3-0.5c0.3-0.4,0.5-0.8,0.5-1.3c0-0.5-0.2-0.9-0.5-1.2
		c-0.3-0.3-0.7-0.5-1.2-0.5c-0.2,0-0.4,0-0.7,0.1l0.1-0.9c0.1,0,0.1,0,0.2,0c0.5,0,0.9-0.1,1.2-0.3c0.4-0.2,0.5-0.6,0.5-1.1
		c0-0.4-0.1-0.7-0.4-1c-0.3-0.3-0.6-0.4-1-0.4c-0.4,0-0.8,0.1-1,0.4c-0.3,0.3-0.4,0.7-0.5,1.2l-1.1-0.2c0.1-0.7,0.4-1.3,0.9-1.7
		c0.5-0.4,1-0.6,1.7-0.6c0.5,0,0.9,0.1,1.3,0.3c0.4,0.2,0.7,0.5,0.9,0.8c0.2,0.4,0.3,0.7,0.3,1.1c0,0.4-0.1,0.7-0.3,1
		c-0.2,0.3-0.5,0.6-0.9,0.7c0.5,0.1,0.9,0.4,1.2,0.7c0.3,0.4,0.4,0.8,0.4,1.4c0,0.8-0.3,1.4-0.8,1.9s-1.2,0.8-2.1,0.8
		c-0.8,0-1.4-0.2-1.9-0.7C361.6,463.1,361.4,462.5,361.3,461.8z M368.5,464.1v-1.2h1.2v1.2H368.5z M376.8,463.1v1h-5.7
		c0-0.3,0-0.5,0.1-0.7c0.1-0.4,0.4-0.8,0.7-1.2c0.3-0.4,0.8-0.8,1.4-1.3c0.9-0.8,1.6-1.4,1.9-1.8c0.3-0.5,0.5-0.9,0.5-1.3
		c0-0.4-0.2-0.8-0.5-1.1c-0.3-0.3-0.7-0.4-1.2-0.4c-0.5,0-0.9,0.2-1.2,0.5c-0.3,0.3-0.5,0.7-0.5,1.3l-1.1-0.1
		c0.1-0.8,0.4-1.4,0.8-1.9c0.5-0.4,1.1-0.6,2-0.6c0.8,0,1.5,0.2,2,0.7c0.5,0.5,0.7,1,0.7,1.7c0,0.3-0.1,0.7-0.2,1
		c-0.1,0.3-0.4,0.7-0.7,1.1c-0.3,0.4-0.9,0.9-1.6,1.5c-0.6,0.5-1,0.9-1.2,1.1c-0.2,0.2-0.3,0.4-0.4,0.6H376.8z M377.8,461.8l1.1-0.1
		c0.1,0.5,0.3,1,0.6,1.2c0.3,0.3,0.7,0.4,1.1,0.4c0.5,0,0.9-0.2,1.3-0.6c0.4-0.4,0.5-0.9,0.5-1.5c0-0.6-0.2-1.1-0.5-1.4
		c-0.3-0.4-0.8-0.5-1.3-0.5c-0.3,0-0.6,0.1-0.9,0.2c-0.3,0.2-0.5,0.4-0.6,0.6l-1-0.1l0.8-4.5h4.3v1h-3.5l-0.5,2.3
		c0.5-0.4,1.1-0.5,1.6-0.5c0.8,0,1.4,0.3,1.9,0.8c0.5,0.5,0.8,1.2,0.8,2c0,0.8-0.2,1.5-0.7,2c-0.6,0.7-1.3,1.1-2.3,1.1
		c-0.8,0-1.4-0.2-1.9-0.7C378.2,463.1,377.9,462.5,377.8,461.8z M390,463.1v1h-5.7c0-0.3,0-0.5,0.1-0.7c0.1-0.4,0.4-0.8,0.7-1.2
		c0.3-0.4,0.8-0.8,1.4-1.3c0.9-0.8,1.6-1.4,1.9-1.8c0.3-0.5,0.5-0.9,0.5-1.3c0-0.4-0.2-0.8-0.5-1.1c-0.3-0.3-0.7-0.4-1.2-0.4
		c-0.5,0-0.9,0.2-1.2,0.5c-0.3,0.3-0.5,0.7-0.5,1.3l-1.1-0.1c0.1-0.8,0.4-1.4,0.8-1.9c0.5-0.4,1.1-0.6,2-0.6c0.8,0,1.5,0.2,2,0.7
		c0.5,0.5,0.7,1,0.7,1.7c0,0.3-0.1,0.7-0.2,1c-0.1,0.3-0.4,0.7-0.7,1.1c-0.3,0.4-0.9,0.9-1.6,1.5c-0.6,0.5-1,0.9-1.2,1.1
		c-0.2,0.2-0.3,0.4-0.4,0.6H390z M391.6,464.1v-1.2h1.2v1.2H391.6z M398.4,464.1h-1.1v-6.8c-0.3,0.2-0.6,0.5-1,0.7
		c-0.4,0.2-0.8,0.4-1.1,0.5v-1c0.6-0.3,1.1-0.6,1.6-1c0.4-0.4,0.8-0.8,0.9-1.2h0.7V464.1z M405,464.1h-1.1v-6.8
		c-0.3,0.2-0.6,0.5-1,0.7c-0.4,0.2-0.8,0.4-1.1,0.5v-1c0.6-0.3,1.1-0.6,1.6-1c0.4-0.4,0.8-0.8,0.9-1.2h0.7V464.1z M407.6,459.8
		c0-1,0.1-1.9,0.3-2.5c0.2-0.6,0.5-1.1,0.9-1.4c0.4-0.3,0.9-0.5,1.6-0.5c0.5,0,0.9,0.1,1.2,0.3c0.4,0.2,0.6,0.5,0.9,0.8
		c0.2,0.4,0.4,0.8,0.5,1.3c0.1,0.5,0.2,1.2,0.2,2.1c0,1-0.1,1.8-0.3,2.5c-0.2,0.6-0.5,1.1-0.9,1.5c-0.4,0.3-0.9,0.5-1.6,0.5
		c-0.8,0-1.5-0.3-2-0.9C407.9,462.6,407.6,461.4,407.6,459.8z M408.7,459.8c0,1.4,0.2,2.4,0.5,2.8c0.3,0.5,0.8,0.7,1.2,0.7
		c0.5,0,0.9-0.2,1.2-0.7c0.3-0.5,0.5-1.4,0.5-2.8c0-1.4-0.2-2.4-0.5-2.8s-0.7-0.7-1.2-0.7c-0.5,0-0.9,0.2-1.2,0.6
		C408.8,457.4,408.7,458.4,408.7,459.8z M414.8,464.1v-1.2h1.2v1.2H414.8z M423.1,463.1v1h-5.7c0-0.3,0-0.5,0.1-0.7
		c0.1-0.4,0.4-0.8,0.7-1.2c0.3-0.4,0.8-0.8,1.4-1.3c0.9-0.8,1.6-1.4,1.9-1.8c0.3-0.5,0.5-0.9,0.5-1.3c0-0.4-0.2-0.8-0.5-1.1
		c-0.3-0.3-0.7-0.4-1.2-0.4c-0.5,0-0.9,0.2-1.2,0.5c-0.3,0.3-0.5,0.7-0.5,1.3l-1.1-0.1c0.1-0.8,0.4-1.4,0.8-1.9
		c0.5-0.4,1.1-0.6,2-0.6c0.8,0,1.5,0.2,2,0.7c0.5,0.5,0.7,1,0.7,1.7c0,0.3-0.1,0.7-0.2,1c-0.1,0.3-0.4,0.7-0.7,1.1
		c-0.3,0.4-0.9,0.9-1.6,1.5c-0.6,0.5-1,0.9-1.2,1.1c-0.2,0.2-0.3,0.4-0.4,0.6H423.1z M424.2,456.6v-1h5.6v0.8
		c-0.6,0.6-1.1,1.4-1.6,2.3c-0.5,1-1,2-1.3,3c-0.2,0.7-0.3,1.5-0.4,2.4h-1.1c0-0.7,0.1-1.5,0.4-2.5c0.3-1,0.6-1.9,1.1-2.8
		c0.5-0.9,1-1.7,1.5-2.3H424.2z"/>
	<path fill="#C9DAF8" d="M391.1,382.4h18.3v-6.5l12.9,12.9l-12.9,12.9v-6.5h-18.3V382.4z"/>
	<path fill="none" stroke="#5B595A" stroke-width="2" stroke-linejoin="round" stroke-miterlimit="10" d="M391.1,382.4h18.3v-6.5
		l12.9,12.9l-12.9,12.9v-6.5h-18.3V382.4z"/>
	<path fill="#CFD4D4" d="M511.6,378.6L511.6,378.6c-0.8-5.9,1.9-11.8,6.9-15.1c5.1-3.3,11.6-3.5,16.8-0.5l0,0
		c1.9-3.4,5.3-5.8,9.2-6.4c3.9-0.6,7.9,0.7,10.7,3.4l0,0c1.6-3.1,4.7-5.2,8.2-5.5c3.5-0.3,7,1.2,9.1,3.9l0,0
		c2.9-3.3,7.4-4.7,11.7-3.6c4.3,1.1,7.5,4.6,8.3,8.8l0,0c3.5,0.9,6.4,3.3,8,6.5c1.6,3.2,1.7,6.9,0.2,10.2l0,0
		c3.4,4.4,4.3,10.3,2.1,15.4c-2.1,5.1-6.9,8.8-12.5,9.6c0,4.8-2.7,9.3-7,11.6c-4.3,2.3-9.6,2.2-13.7-0.4c-1.8,5.8-6.8,10-12.9,10.9
		c-6.1,0.9-12.1-1.7-15.5-6.8c-4.2,2.5-9.2,3.2-13.9,2c-4.7-1.2-8.7-4.2-11.2-8.4l0,0c-4.3,0.5-8.4-1.7-10.3-5.4s-1.3-8.3,1.7-11.4
		l0,0c-3.8-2.2-5.8-6.6-4.8-10.8c0.9-4.3,4.5-7.5,8.9-7.9L511.6,378.6z"/>
	<path fill-opacity="0" d="M507.4,397.6L507.4,397.6c1.8,1,3.9,1.5,6,1.4 M516.1,414.4c0.9-0.1,1.8-0.3,2.6-0.6 M541.2,420.9
		c-0.6-0.9-1.2-1.9-1.6-3 M569.5,416.7L569.5,416.7c0.3-1.1,0.5-2.1,0.6-3.2 M590.3,405.5c0-5.1-2.9-9.9-7.6-12.1 M600.7,380.5
		c-0.8,1.8-1.9,3.3-3.4,4.5 M592.5,363.7L592.5,363.7c0.1,0.7,0.2,1.4,0.2,2.1 M572.5,358.5L572.5,358.5c-0.7,0.8-1.3,1.7-1.7,2.7
		 M555.2,360.1L555.2,360.1c-0.4,0.7-0.7,1.5-0.8,2.4 M535.3,363.1L535.3,363.1c1.1,0.6,2.1,1.4,3.1,2.3 M511.6,378.6L511.6,378.6
		c0.1,0.8,0.3,1.6,0.5,2.4"/>
	<path fill="none" stroke="#5B595A" stroke-width="2" stroke-linejoin="round" stroke-miterlimit="10" d="M511.6,378.6L511.6,378.6
		c-0.8-5.9,1.9-11.8,6.9-15.1c5.1-3.3,11.6-3.5,16.8-0.5l0,0c1.9-3.4,5.3-5.8,9.2-6.4c3.9-0.6,7.9,0.7,10.7,3.4l0,0
		c1.6-3.1,4.7-5.2,8.2-5.5c3.5-0.3,7,1.2,9.1,3.9l0,0c2.9-3.3,7.4-4.7,11.7-3.6c4.3,1.1,7.5,4.6,8.3,8.8l0,0c3.5,0.9,6.4,3.3,8,6.5
		c1.6,3.2,1.7,6.9,0.2,10.2l0,0c3.4,4.4,4.3,10.3,2.1,15.4c-2.1,5.1-6.9,8.8-12.5,9.6c0,4.8-2.7,9.3-7,11.6
		c-4.3,2.3-9.6,2.2-13.7-0.4c-1.8,5.8-6.8,10-12.9,10.9c-6.1,0.9-12.1-1.7-15.5-6.8c-4.2,2.5-9.2,3.2-13.9,2
		c-4.7-1.2-8.7-4.2-11.2-8.4l0,0c-4.3,0.5-8.4-1.7-10.3-5.4s-1.3-8.3,1.7-11.4l0,0c-3.8-2.2-5.8-6.6-4.8-10.8
		c0.9-4.3,4.5-7.5,8.9-7.9L511.6,378.6z"/>
	<path fill="none" stroke="#5B595A" stroke-width="2" stroke-linejoin="round" stroke-miterlimit="10" d="M507.4,397.6L507.4,397.6
		c1.8,1,3.9,1.5,6,1.4 M516.1,414.4c0.9-0.1,1.8-0.3,2.6-0.6 M541.2,420.9c-0.6-0.9-1.2-1.9-1.6-3 M569.5,416.7L569.5,416.7
		c0.3-1.1,0.5-2.1,0.6-3.2 M590.3,405.5c0-5.1-2.9-9.9-7.6-12.1 M600.7,380.5c-0.8,1.8-1.9,3.3-3.4,4.5 M592.5,363.7L592.5,363.7
		c0.1,0.7,0.2,1.4,0.2,2.1 M572.5,358.5L572.5,358.5c-0.7,0.8-1.3,1.7-1.7,2.7 M555.2,360.1L555.2,360.1c-0.4,0.7-0.7,1.5-0.8,2.4
		 M535.3,363.1L535.3,363.1c1.1,0.6,2.1,1.4,3.1,2.3 M511.6,378.6L511.6,378.6c0.1,0.8,0.3,1.6,0.5,2.4"/>
	<path d="M545.1,386.1l0.1,0.8c-0.3,0.1-0.5,0.1-0.7,0.1c-0.3,0-0.6,0-0.8-0.1c-0.2-0.1-0.3-0.2-0.4-0.4c-0.1-0.2-0.1-0.5-0.1-1.1
		v-3h-0.7v-0.7h0.7v-1.3l0.9-0.5v1.9h0.9v0.7h-0.9v3.1c0,0.3,0,0.4,0,0.5c0,0.1,0.1,0.1,0.2,0.2c0.1,0,0.2,0.1,0.3,0.1
		C544.8,386.1,545,386.1,545.1,386.1z M546,386.9v-7.3h0.9v2.6c0.4-0.5,0.9-0.7,1.6-0.7c0.4,0,0.7,0.1,1,0.2
		c0.3,0.2,0.5,0.4,0.6,0.6c0.1,0.3,0.2,0.7,0.2,1.2v3.4h-0.9v-3.4c0-0.4-0.1-0.8-0.3-1s-0.5-0.3-0.8-0.3c-0.3,0-0.5,0.1-0.7,0.2
		c-0.2,0.1-0.4,0.3-0.5,0.6c-0.1,0.2-0.1,0.6-0.1,1v2.9H546z M551.4,385l0.9-0.1c0.1,0.5,0.3,0.9,0.5,1.1c0.2,0.2,0.5,0.3,0.9,0.3
		c0.4,0,0.8-0.1,1.1-0.4c0.3-0.3,0.4-0.7,0.4-1.1c0-0.4-0.1-0.8-0.4-1c-0.3-0.3-0.6-0.4-1-0.4c-0.2,0-0.4,0-0.6,0.1l0.1-0.8
		c0.1,0,0.1,0,0.1,0c0.4,0,0.7-0.1,1-0.3s0.5-0.5,0.5-0.9c0-0.3-0.1-0.6-0.3-0.8c-0.2-0.2-0.5-0.3-0.9-0.3c-0.4,0-0.6,0.1-0.9,0.3
		c-0.2,0.2-0.4,0.5-0.4,1l-0.9-0.2c0.1-0.6,0.4-1.1,0.7-1.4c0.4-0.3,0.9-0.5,1.5-0.5c0.4,0,0.8,0.1,1.1,0.3c0.3,0.2,0.6,0.4,0.8,0.7
		c0.2,0.3,0.3,0.6,0.3,0.9c0,0.3-0.1,0.6-0.3,0.9c-0.2,0.3-0.4,0.5-0.7,0.6c0.4,0.1,0.8,0.3,1,0.6s0.4,0.7,0.4,1.2
		c0,0.6-0.2,1.2-0.7,1.6c-0.5,0.4-1.1,0.7-1.8,0.7c-0.6,0-1.2-0.2-1.6-0.6C551.7,386.1,551.5,385.6,551.4,385z"/>
	<path d="M528.4,392.7v-1h0.9v1H528.4z M528.4,399v-5.3h0.9v5.3H528.4z M530.7,399v-5.3h0.8v0.7c0.4-0.6,0.9-0.9,1.7-0.9
		c0.3,0,0.6,0.1,0.9,0.2c0.3,0.1,0.5,0.3,0.6,0.4c0.1,0.2,0.2,0.4,0.3,0.7c0,0.2,0,0.5,0,0.9v3.3h-0.9v-3.2c0-0.4,0-0.6-0.1-0.8
		c-0.1-0.2-0.2-0.3-0.4-0.4c-0.2-0.1-0.4-0.2-0.6-0.2c-0.4,0-0.7,0.1-1,0.4c-0.3,0.2-0.4,0.7-0.4,1.4v2.9H530.7z M538.3,398.2
		l0.1,0.8c-0.3,0.1-0.5,0.1-0.7,0.1c-0.3,0-0.6,0-0.8-0.1c-0.2-0.1-0.3-0.2-0.4-0.4c-0.1-0.2-0.1-0.5-0.1-1.1v-3h-0.7v-0.7h0.7v-1.3
		l0.9-0.5v1.9h0.9v0.7h-0.9v3.1c0,0.3,0,0.4,0,0.5c0,0.1,0.1,0.1,0.2,0.2c0.1,0,0.2,0.1,0.3,0.1C538,398.2,538.2,398.2,538.3,398.2z
		 M539,397.1l0.9-0.1c0.1,0.5,0.3,0.9,0.5,1.1c0.2,0.2,0.5,0.3,0.9,0.3c0.4,0,0.8-0.1,1.1-0.4c0.3-0.3,0.4-0.7,0.4-1.1
		c0-0.4-0.1-0.8-0.4-1c-0.3-0.3-0.6-0.4-1-0.4c-0.2,0-0.4,0-0.6,0.1l0.1-0.8c0.1,0,0.1,0,0.1,0c0.4,0,0.7-0.1,1-0.3
		c0.3-0.2,0.5-0.5,0.5-0.9c0-0.3-0.1-0.6-0.3-0.8c-0.2-0.2-0.5-0.3-0.9-0.3c-0.4,0-0.6,0.1-0.9,0.3c-0.2,0.2-0.4,0.5-0.4,1l-0.9-0.2
		c0.1-0.6,0.4-1.1,0.7-1.4c0.4-0.3,0.9-0.5,1.5-0.5c0.4,0,0.8,0.1,1.1,0.3c0.3,0.2,0.6,0.4,0.8,0.7c0.2,0.3,0.3,0.6,0.3,0.9
		c0,0.3-0.1,0.6-0.3,0.9c-0.2,0.3-0.4,0.5-0.7,0.6c0.4,0.1,0.8,0.3,1,0.6c0.2,0.3,0.4,0.7,0.4,1.2c0,0.6-0.2,1.2-0.7,1.6
		c-0.5,0.4-1.1,0.7-1.8,0.7c-0.6,0-1.2-0.2-1.6-0.6C539.3,398.2,539,397.7,539,397.1z M544.9,399v-5.3h0.8v0.8
		c0.2-0.4,0.4-0.6,0.6-0.7c0.2-0.1,0.4-0.2,0.6-0.2c0.3,0,0.6,0.1,0.9,0.3l-0.3,0.8c-0.2-0.1-0.4-0.2-0.7-0.2
		c-0.2,0-0.4,0.1-0.5,0.2c-0.2,0.1-0.3,0.3-0.3,0.5c-0.1,0.3-0.1,0.7-0.1,1v2.8H544.9z M549.2,399l-1.6-5.3h0.9l0.8,3l0.3,1.1
		c0-0.1,0.1-0.4,0.3-1.1l0.8-3.1h0.9l0.8,3.1l0.3,1l0.3-1l0.9-3.1h0.9l-1.7,5.3h-0.9l-0.8-3.2l-0.2-0.9l-1.1,4.1H549.2z
		 M555.4,397.1l0.9-0.1c0.1,0.5,0.3,0.9,0.5,1.1c0.2,0.2,0.5,0.3,0.9,0.3c0.4,0,0.8-0.1,1.1-0.4c0.3-0.3,0.4-0.7,0.4-1.1
		c0-0.4-0.1-0.8-0.4-1c-0.3-0.3-0.6-0.4-1-0.4c-0.2,0-0.4,0-0.6,0.1l0.1-0.8c0.1,0,0.1,0,0.1,0c0.4,0,0.7-0.1,1-0.3
		c0.3-0.2,0.5-0.5,0.5-0.9c0-0.3-0.1-0.6-0.3-0.8c-0.2-0.2-0.5-0.3-0.9-0.3c-0.4,0-0.6,0.1-0.9,0.3c-0.2,0.2-0.4,0.5-0.4,1l-0.9-0.2
		c0.1-0.6,0.4-1.1,0.7-1.4c0.4-0.3,0.9-0.5,1.5-0.5c0.4,0,0.8,0.1,1.1,0.3c0.3,0.2,0.6,0.4,0.8,0.7c0.2,0.3,0.3,0.6,0.3,0.9
		c0,0.3-0.1,0.6-0.3,0.9c-0.2,0.3-0.4,0.5-0.7,0.6c0.4,0.1,0.8,0.3,1,0.6c0.2,0.3,0.4,0.7,0.4,1.2c0,0.6-0.2,1.2-0.7,1.6
		c-0.5,0.4-1.1,0.7-1.8,0.7c-0.6,0-1.2-0.2-1.6-0.6C555.7,398.2,555.4,397.7,555.4,397.1z M562.1,399h-0.8v-7.3h0.9v2.6
		c0.4-0.5,0.9-0.7,1.5-0.7c0.3,0,0.6,0.1,0.9,0.2c0.3,0.1,0.5,0.3,0.7,0.5c0.2,0.2,0.3,0.5,0.4,0.9c0.1,0.3,0.2,0.7,0.2,1.1
		c0,0.9-0.2,1.6-0.7,2.1c-0.4,0.5-1,0.7-1.6,0.7c-0.6,0-1.1-0.3-1.5-0.8V399z M562.1,396.3c0,0.6,0.1,1.1,0.3,1.4
		c0.3,0.5,0.7,0.7,1.1,0.7c0.4,0,0.7-0.2,1-0.5c0.3-0.3,0.4-0.9,0.4-1.5c0-0.7-0.1-1.2-0.4-1.5c-0.3-0.3-0.6-0.5-1-0.5
		c-0.4,0-0.7,0.2-1,0.5C562.3,395.2,562.1,395.7,562.1,396.3z M566.5,399v-0.7l3.4-3.9c-0.4,0-0.7,0-1,0h-2.2v-0.7h4.3v0.6l-2.9,3.4
		l-0.6,0.6c0.4,0,0.8,0,1.1,0h2.4v0.8H566.5z"/>
	<path fill="#CFD4D4" d="M535,292.5h51.8v37.8H535V292.5z"/>
	<path fill="#D8DCDC" d="M528.7,286.2h64.4l-6.3,6.3H535L528.7,286.2z"/>
	<path fill="#A5A9A9" d="M528.7,336.6l6.3-6.3h51.8l6.3,6.3H528.7z"/>
	<path fill="#E2E5E5" d="M528.7,286.2l6.3,6.3v37.8l-6.3,6.3V286.2z"/>
	<path fill="#7C7F7F" d="M593.1,286.2v50.4l-6.3-6.3v-37.8L593.1,286.2z"/>
	<path fill-opacity="0" d="M528.7,286.2h64.4v50.4h-64.4V286.2z M535,292.5h51.8v37.8H535V292.5z M528.7,286.2l6.3,6.3 M528.7,336.6
		l6.3-6.3 M593.1,286.2l-6.3,6.3 M593.1,336.6l-6.3-6.3"/>
	<path fill="none" stroke="#5B595A" stroke-width="2" stroke-linejoin="round" stroke-miterlimit="10" d="M528.7,286.2h64.4v50.4
		h-64.4V286.2z M535,292.5h51.8v37.8H535V292.5z M528.7,286.2l6.3,6.3 M528.7,336.6l6.3-6.3 M593.1,286.2l-6.3,6.3 M593.1,336.6
		l-6.3-6.3"/>
	<path d="M550.9,303v-7.3h3.2c0.7,0,1.1,0.1,1.5,0.2c0.3,0.1,0.6,0.4,0.8,0.7c0.2,0.3,0.3,0.7,0.3,1.1c0,0.5-0.2,1-0.5,1.3
		c-0.3,0.4-0.8,0.6-1.6,0.7c0.3,0.1,0.5,0.2,0.6,0.4c0.3,0.3,0.5,0.6,0.8,1l1.3,2h-1.2l-1-1.5c-0.3-0.4-0.5-0.8-0.7-1
		c-0.2-0.2-0.3-0.4-0.5-0.5c-0.1-0.1-0.3-0.2-0.4-0.2c-0.1,0-0.3,0-0.5,0h-1.1v3.2H550.9z M551.9,298.9h2.1c0.4,0,0.8,0,1-0.1
		c0.3-0.1,0.4-0.2,0.6-0.4c0.1-0.2,0.2-0.4,0.2-0.7c0-0.3-0.1-0.6-0.4-0.8c-0.3-0.2-0.6-0.3-1.2-0.3h-2.3V298.9z M557.8,300.3
		c0-1,0.3-1.7,0.8-2.2c0.5-0.4,1-0.6,1.7-0.6c0.7,0,1.3,0.2,1.8,0.7c0.5,0.5,0.7,1.1,0.7,2c0,0.7-0.1,1.2-0.3,1.6
		c-0.2,0.4-0.5,0.7-0.9,0.9c-0.4,0.2-0.8,0.3-1.3,0.3c-0.7,0-1.3-0.2-1.8-0.7C558.1,301.9,557.8,301.2,557.8,300.3z M558.8,300.3
		c0,0.7,0.1,1.2,0.4,1.5c0.3,0.3,0.7,0.5,1.1,0.5s0.8-0.2,1.1-0.5c0.3-0.3,0.4-0.9,0.4-1.6c0-0.7-0.1-1.1-0.4-1.5
		c-0.3-0.3-0.7-0.5-1.1-0.5s-0.8,0.2-1.1,0.5C558.9,299.2,558.8,299.7,558.8,300.3z M563.5,300.3c0-1,0.3-1.7,0.8-2.2
		c0.5-0.4,1-0.6,1.7-0.6c0.7,0,1.3,0.2,1.8,0.7c0.5,0.5,0.7,1.1,0.7,2c0,0.7-0.1,1.2-0.3,1.6c-0.2,0.4-0.5,0.7-0.9,0.9
		c-0.4,0.2-0.8,0.3-1.3,0.3c-0.7,0-1.3-0.2-1.8-0.7C563.7,301.9,563.5,301.2,563.5,300.3z M564.4,300.3c0,0.7,0.1,1.2,0.4,1.5
		c0.3,0.3,0.7,0.5,1.1,0.5s0.8-0.2,1.1-0.5c0.3-0.3,0.4-0.9,0.4-1.6c0-0.7-0.1-1.1-0.4-1.5c-0.3-0.3-0.7-0.5-1.1-0.5
		s-0.8,0.2-1.1,0.5C564.6,299.2,564.4,299.7,564.4,300.3z M571.5,302.2l0.1,0.8c-0.3,0.1-0.5,0.1-0.7,0.1c-0.3,0-0.6,0-0.8-0.1
		c-0.2-0.1-0.3-0.2-0.4-0.4c-0.1-0.2-0.1-0.5-0.1-1.1v-3H569v-0.7h0.7v-1.3l0.9-0.5v1.9h0.9v0.7h-0.9v3.1c0,0.3,0,0.4,0,0.5
		c0,0.1,0.1,0.1,0.2,0.2c0.1,0,0.2,0.1,0.3,0.1C571.2,302.2,571.3,302.2,571.5,302.2z"/>
	<path d="M550.9,315.1v-7.3h2.5c0.6,0,1,0,1.3,0.1c0.4,0.1,0.8,0.3,1.1,0.5c0.4,0.3,0.7,0.7,0.9,1.2c0.2,0.5,0.3,1.1,0.3,1.7
		c0,0.6-0.1,1.1-0.2,1.5c-0.1,0.4-0.3,0.8-0.5,1.1c-0.2,0.3-0.4,0.5-0.7,0.7c-0.2,0.2-0.5,0.3-0.9,0.4c-0.3,0.1-0.7,0.1-1.2,0.1
		H550.9z M551.9,314.2h1.6c0.5,0,0.9,0,1.1-0.1c0.3-0.1,0.5-0.2,0.7-0.4c0.2-0.2,0.4-0.5,0.5-0.9c0.1-0.4,0.2-0.9,0.2-1.4
		c0-0.8-0.1-1.4-0.4-1.8c-0.2-0.4-0.5-0.7-0.9-0.8c-0.3-0.1-0.7-0.1-1.3-0.1h-1.5V314.2z M558.3,315.1v-7.3h1l3.8,5.7v-5.7h0.9v7.3
		h-1l-3.8-5.7v5.7H558.3z M565.3,312.8l0.9-0.1c0,0.4,0.1,0.7,0.3,0.9c0.2,0.2,0.4,0.4,0.7,0.6c0.3,0.1,0.7,0.2,1.1,0.2
		c0.4,0,0.7-0.1,1-0.2c0.3-0.1,0.5-0.3,0.6-0.4c0.1-0.2,0.2-0.4,0.2-0.6c0-0.2-0.1-0.4-0.2-0.6c-0.1-0.2-0.4-0.3-0.7-0.4
		c-0.2-0.1-0.6-0.2-1.3-0.3c-0.7-0.2-1.1-0.3-1.4-0.5c-0.3-0.2-0.6-0.4-0.8-0.7c-0.2-0.3-0.3-0.6-0.3-0.9c0-0.4,0.1-0.7,0.3-1
		c0.2-0.3,0.5-0.6,0.9-0.7c0.4-0.2,0.9-0.2,1.3-0.2c0.5,0,1,0.1,1.4,0.3c0.4,0.2,0.7,0.4,0.9,0.8c0.2,0.3,0.3,0.7,0.4,1.1l-0.9,0.1
		c-0.1-0.5-0.2-0.8-0.5-1c-0.3-0.2-0.7-0.4-1.3-0.4c-0.6,0-1,0.1-1.3,0.3s-0.4,0.5-0.4,0.8c0,0.3,0.1,0.5,0.3,0.6
		c0.2,0.2,0.7,0.3,1.5,0.5c0.8,0.2,1.3,0.3,1.6,0.5c0.4,0.2,0.7,0.4,0.9,0.7c0.2,0.3,0.3,0.6,0.3,1c0,0.4-0.1,0.8-0.3,1.1
		c-0.2,0.3-0.5,0.6-1,0.8c-0.4,0.2-0.9,0.3-1.4,0.3c-0.7,0-1.2-0.1-1.7-0.3c-0.4-0.2-0.8-0.5-1.1-0.9
		C565.5,313.7,565.3,313.2,565.3,312.8z"/>
	<path d="M543.8,324.9l0.9-0.1c0,0.4,0.1,0.7,0.3,0.9c0.2,0.2,0.4,0.4,0.7,0.6c0.3,0.1,0.7,0.2,1.1,0.2c0.4,0,0.7-0.1,1-0.2
		c0.3-0.1,0.5-0.3,0.6-0.4c0.1-0.2,0.2-0.4,0.2-0.6c0-0.2-0.1-0.4-0.2-0.6c-0.1-0.2-0.4-0.3-0.7-0.4c-0.2-0.1-0.6-0.2-1.3-0.3
		c-0.7-0.2-1.1-0.3-1.4-0.5c-0.3-0.2-0.6-0.4-0.8-0.7c-0.2-0.3-0.3-0.6-0.3-0.9c0-0.4,0.1-0.7,0.3-1c0.2-0.3,0.5-0.6,0.9-0.7
		c0.4-0.2,0.9-0.2,1.3-0.2c0.5,0,1,0.1,1.4,0.3c0.4,0.2,0.7,0.4,0.9,0.8c0.2,0.3,0.3,0.7,0.4,1.1l-0.9,0.1c-0.1-0.5-0.2-0.8-0.5-1
		c-0.3-0.2-0.7-0.4-1.3-0.4c-0.6,0-1,0.1-1.3,0.3c-0.3,0.2-0.4,0.5-0.4,0.8c0,0.3,0.1,0.5,0.3,0.6c0.2,0.2,0.7,0.3,1.5,0.5
		c0.8,0.2,1.3,0.3,1.6,0.5c0.4,0.2,0.7,0.4,0.9,0.7c0.2,0.3,0.3,0.6,0.3,1c0,0.4-0.1,0.8-0.3,1.1c-0.2,0.3-0.5,0.6-1,0.8
		c-0.4,0.2-0.9,0.3-1.4,0.3c-0.7,0-1.2-0.1-1.7-0.3c-0.4-0.2-0.8-0.5-1.1-0.9C543.9,325.8,543.8,325.4,543.8,324.9z M554.4,325.5
		l0.9,0.1c-0.1,0.5-0.4,1-0.8,1.3c-0.4,0.3-0.9,0.4-1.5,0.4c-0.8,0-1.4-0.2-1.8-0.7c-0.5-0.5-0.7-1.1-0.7-2c0-0.9,0.2-1.6,0.7-2.1
		c0.5-0.5,1.1-0.7,1.8-0.7c0.7,0,1.3,0.2,1.7,0.7c0.5,0.5,0.7,1.2,0.7,2c0,0.1,0,0.1,0,0.2h-3.9c0,0.6,0.2,1,0.5,1.3
		c0.3,0.3,0.7,0.5,1.1,0.5c0.3,0,0.6-0.1,0.8-0.3C554.1,326.2,554.3,325.9,554.4,325.5z M551.5,324.1h2.9c0-0.4-0.2-0.8-0.3-1
		c-0.3-0.3-0.7-0.5-1.1-0.5c-0.4,0-0.8,0.1-1,0.4C551.7,323.2,551.5,323.6,551.5,324.1z M556.5,327.2v-5.3h0.8v0.8
		c0.2-0.4,0.4-0.6,0.6-0.7c0.2-0.1,0.4-0.2,0.6-0.2c0.3,0,0.6,0.1,0.9,0.3l-0.3,0.8c-0.2-0.1-0.4-0.2-0.7-0.2
		c-0.2,0-0.4,0.1-0.5,0.2c-0.2,0.1-0.3,0.3-0.3,0.5c-0.1,0.3-0.1,0.7-0.1,1v2.8H556.5z M561.3,327.2l-2-5.3h0.9l1.1,3.2
		c0.1,0.3,0.2,0.7,0.3,1.1c0.1-0.3,0.2-0.6,0.3-1l1.2-3.2h0.9l-2,5.3H561.3z M568.6,325.5l0.9,0.1c-0.1,0.5-0.4,1-0.8,1.3
		c-0.4,0.3-0.9,0.4-1.5,0.4c-0.8,0-1.4-0.2-1.8-0.7c-0.5-0.5-0.7-1.1-0.7-2c0-0.9,0.2-1.6,0.7-2.1c0.5-0.5,1.1-0.7,1.8-0.7
		c0.7,0,1.3,0.2,1.7,0.7c0.5,0.5,0.7,1.2,0.7,2c0,0.1,0,0.1,0,0.2h-3.9c0,0.6,0.2,1,0.5,1.3c0.3,0.3,0.7,0.5,1.1,0.5
		c0.3,0,0.6-0.1,0.8-0.3C568.3,326.2,568.5,325.9,568.6,325.5z M565.7,324.1h2.9c0-0.4-0.2-0.8-0.3-1c-0.3-0.3-0.7-0.5-1.1-0.5
		c-0.4,0-0.8,0.1-1,0.4C565.8,323.2,565.7,323.6,565.7,324.1z M570.6,327.2v-5.3h0.8v0.8c0.2-0.4,0.4-0.6,0.6-0.7
		c0.2-0.1,0.4-0.2,0.6-0.2c0.3,0,0.6,0.1,0.9,0.3l-0.3,0.8c-0.2-0.1-0.4-0.2-0.7-0.2c-0.2,0-0.4,0.1-0.5,0.2
		c-0.2,0.1-0.3,0.3-0.3,0.5c-0.1,0.3-0.1,0.7-0.1,1v2.8H570.6z M573.7,325.6l0.9-0.1c0,0.4,0.2,0.6,0.4,0.8c0.2,0.2,0.6,0.3,1,0.3
		c0.4,0,0.7-0.1,0.9-0.2c0.2-0.2,0.3-0.4,0.3-0.6c0-0.2-0.1-0.4-0.3-0.5c-0.1-0.1-0.4-0.2-0.9-0.3c-0.7-0.2-1.1-0.3-1.4-0.4
		c-0.3-0.1-0.4-0.3-0.6-0.5c-0.1-0.2-0.2-0.4-0.2-0.7c0-0.2,0.1-0.5,0.2-0.7s0.3-0.4,0.4-0.5c0.1-0.1,0.3-0.2,0.6-0.3
		c0.2-0.1,0.5-0.1,0.8-0.1c0.4,0,0.8,0.1,1.1,0.2c0.3,0.1,0.5,0.3,0.7,0.5c0.2,0.2,0.3,0.5,0.3,0.8l-0.9,0.1c0-0.3-0.2-0.5-0.3-0.6
		s-0.5-0.2-0.8-0.2c-0.4,0-0.7,0.1-0.9,0.2c-0.2,0.1-0.3,0.3-0.3,0.5c0,0.1,0,0.2,0.1,0.3c0.1,0.1,0.2,0.2,0.3,0.2
		c0.1,0,0.4,0.1,0.8,0.2c0.6,0.2,1.1,0.3,1.3,0.4c0.3,0.1,0.4,0.3,0.6,0.5c0.1,0.2,0.2,0.5,0.2,0.8c0,0.3-0.1,0.6-0.3,0.8
		c-0.2,0.3-0.4,0.5-0.8,0.6c-0.3,0.1-0.7,0.2-1.1,0.2c-0.7,0-1.2-0.1-1.6-0.4C574,326.6,573.8,326.2,573.7,325.6z"/>
	<path fill="#C9DAF8" d="M553.6,341.3l7.3-7.3l7.3,7.3h-3.7v18.5h-7.3v-18.5H553.6z"/>
	<path fill="none" stroke="#5B595A" stroke-width="2" stroke-linejoin="round" stroke-miterlimit="10" d="M553.6,341.3l7.3-7.3
		l7.3,7.3h-3.7v18.5h-7.3v-18.5H553.6z"/>
	<path fill="#C9DAF8" d="M475.2,382h18.3v-6.5l12.9,12.9l-12.9,12.9v-6.5h-18.3V382z"/>
	<path fill="none" stroke="#5B595A" stroke-width="2" stroke-linejoin="round" stroke-miterlimit="10" d="M475.2,382h18.3v-6.5
		l12.9,12.9l-12.9,12.9v-6.5h-18.3V382z"/>
	<path fill="#CFD4D4" d="M450.2,524.6L450.2,524.6c-0.6-4.1,1.5-8.1,5.5-10.4c4-2.3,9.2-2.4,13.3-0.3l0,0c1.5-2.4,4.2-4,7.3-4.4
		c3.1-0.4,6.2,0.5,8.5,2.3l0,0c1.3-2.1,3.7-3.6,6.5-3.8c2.8-0.2,5.5,0.8,7.2,2.7l0,0c2.3-2.3,5.9-3.2,9.3-2.5
		c3.4,0.8,5.9,3.1,6.6,6.1l0,0c2.8,0.6,5.1,2.3,6.3,4.5s1.3,4.8,0.2,7l0,0c2.7,3,3.4,7.1,1.7,10.6s-5.5,6-9.9,6.6
		c0,3.3-2.2,6.4-5.6,8c-3.4,1.6-7.6,1.5-10.9-0.3c-1.4,4-5.4,6.9-10.2,7.5c-4.8,0.6-9.6-1.2-12.3-4.7c-3.3,1.7-7.3,2.2-11,1.4
		c-3.7-0.8-6.9-2.9-8.9-5.8l0,0c-3.4,0.3-6.7-1.2-8.2-3.7c-1.5-2.6-1-5.7,1.3-7.8l0,0c-3-1.5-4.6-4.5-3.8-7.5
		c0.7-2.9,3.6-5.1,7.1-5.4L450.2,524.6z"/>
	<path fill-opacity="0" d="M446.8,537.7L446.8,537.7c1.4,0.7,3.1,1,4.7,0.9 M453.7,549.2c0.7-0.1,1.4-0.2,2.1-0.4 M473.6,553.7
		c-0.5-0.6-0.9-1.3-1.2-2 M496.1,550.8L496.1,550.8c0.3-0.7,0.4-1.5,0.5-2.2 M512.6,543.1c0-3.5-2.3-6.8-6.1-8.3 M520.9,525.9
		c-0.6,1.2-1.5,2.3-2.7,3.1 M514.3,514.4L514.3,514.4c0.1,0.5,0.2,1,0.1,1.5 M498.5,510.8L498.5,510.8c-0.6,0.6-1,1.2-1.4,1.9
		 M484.8,511.9L484.8,511.9c-0.3,0.5-0.5,1.1-0.7,1.6 M469,513.9L469,513.9c0.9,0.4,1.7,1,2.4,1.6 M450.2,524.6L450.2,524.6
		c0.1,0.6,0.2,1.1,0.4,1.7"/>
	<path fill="none" stroke="#5B595A" stroke-width="2" stroke-linejoin="round" stroke-miterlimit="10" d="M450.2,524.6L450.2,524.6
		c-0.6-4.1,1.5-8.1,5.5-10.4c4-2.3,9.2-2.4,13.3-0.3l0,0c1.5-2.4,4.2-4,7.3-4.4c3.1-0.4,6.2,0.5,8.5,2.3l0,0
		c1.3-2.1,3.7-3.6,6.5-3.8c2.8-0.2,5.5,0.8,7.2,2.7l0,0c2.3-2.3,5.9-3.2,9.3-2.5c3.4,0.8,5.9,3.1,6.6,6.1l0,0
		c2.8,0.6,5.1,2.3,6.3,4.5s1.3,4.8,0.2,7l0,0c2.7,3,3.4,7.1,1.7,10.6s-5.5,6-9.9,6.6c0,3.3-2.2,6.4-5.6,8c-3.4,1.6-7.6,1.5-10.9-0.3
		c-1.4,4-5.4,6.9-10.2,7.5c-4.8,0.6-9.6-1.2-12.3-4.7c-3.3,1.7-7.3,2.2-11,1.4c-3.7-0.8-6.9-2.9-8.9-5.8l0,0
		c-3.4,0.3-6.7-1.2-8.2-3.7c-1.5-2.6-1-5.7,1.3-7.8l0,0c-3-1.5-4.6-4.5-3.8-7.5c0.7-2.9,3.6-5.1,7.1-5.4L450.2,524.6z"/>
	<path fill="none" stroke="#5B595A" stroke-width="2" stroke-linejoin="round" stroke-miterlimit="10" d="M446.8,537.7L446.8,537.7
		c1.4,0.7,3.1,1,4.7,0.9 M453.7,549.2c0.7-0.1,1.4-0.2,2.1-0.4 M473.6,553.7c-0.5-0.6-0.9-1.3-1.2-2 M496.1,550.8L496.1,550.8
		c0.3-0.7,0.4-1.5,0.5-2.2 M512.6,543.1c0-3.5-2.3-6.8-6.1-8.3 M520.9,525.9c-0.6,1.2-1.5,2.3-2.7,3.1 M514.3,514.4L514.3,514.4
		c0.1,0.5,0.2,1,0.1,1.5 M498.5,510.8L498.5,510.8c-0.6,0.6-1,1.2-1.4,1.9 M484.8,511.9L484.8,511.9c-0.3,0.5-0.5,1.1-0.7,1.6
		 M469,513.9L469,513.9c0.9,0.4,1.7,1,2.4,1.6 M450.2,524.6L450.2,524.6c0.1,0.6,0.2,1.1,0.4,1.7"/>
	<path d="M476.6,529.2l0.1,0.6c-0.2,0-0.4,0.1-0.5,0.1c-0.3,0-0.5,0-0.6-0.1c-0.1-0.1-0.2-0.2-0.3-0.3c-0.1-0.1-0.1-0.4-0.1-0.9
		v-2.5h-0.5v-0.6h0.5v-1.1l0.7-0.4v1.5h0.7v0.6h-0.7v2.5c0,0.2,0,0.3,0,0.4c0,0.1,0.1,0.1,0.1,0.1c0.1,0,0.1,0,0.2,0
		C476.3,529.2,476.4,529.2,476.6,529.2z M477.3,529.8v-5.9h0.7v2.1c0.3-0.4,0.8-0.6,1.3-0.6c0.3,0,0.6,0.1,0.8,0.2
		c0.2,0.1,0.4,0.3,0.5,0.5c0.1,0.2,0.1,0.5,0.1,1v2.7h-0.7v-2.7c0-0.4-0.1-0.6-0.2-0.8c-0.2-0.2-0.4-0.2-0.7-0.2
		c-0.2,0-0.4,0.1-0.6,0.2c-0.2,0.1-0.3,0.3-0.4,0.4c-0.1,0.2-0.1,0.5-0.1,0.8v2.4H477.3z M481.8,528.3l0.7-0.1
		c0.1,0.4,0.2,0.7,0.4,0.9c0.2,0.2,0.4,0.3,0.7,0.3c0.3,0,0.6-0.1,0.9-0.3c0.2-0.2,0.4-0.5,0.4-0.9c0-0.3-0.1-0.6-0.3-0.8
		c-0.2-0.2-0.5-0.3-0.8-0.3c-0.1,0-0.3,0-0.5,0.1l0.1-0.6c0.1,0,0.1,0,0.1,0c0.3,0,0.6-0.1,0.8-0.2c0.3-0.2,0.4-0.4,0.4-0.8
		c0-0.3-0.1-0.5-0.3-0.7c-0.2-0.2-0.4-0.3-0.7-0.3c-0.3,0-0.5,0.1-0.7,0.3c-0.2,0.2-0.3,0.4-0.4,0.8l-0.7-0.1
		c0.1-0.5,0.3-0.9,0.6-1.1c0.3-0.3,0.7-0.4,1.2-0.4c0.3,0,0.6,0.1,0.9,0.2c0.3,0.1,0.5,0.3,0.6,0.6c0.1,0.2,0.2,0.5,0.2,0.8
		c0,0.3-0.1,0.5-0.2,0.7c-0.1,0.2-0.3,0.4-0.6,0.5c0.3,0.1,0.6,0.3,0.8,0.5c0.2,0.3,0.3,0.6,0.3,1c0,0.5-0.2,1-0.6,1.3
		c-0.4,0.4-0.9,0.5-1.4,0.5c-0.5,0-0.9-0.2-1.3-0.5C482.1,529.2,481.9,528.8,481.8,528.3z"/>
	<path d="M462.7,535v-0.8h0.7v0.8H462.7z M462.7,540v-4.3h0.7v4.3H462.7z M464.6,540v-4.3h0.7v0.6c0.3-0.5,0.8-0.7,1.4-0.7
		c0.3,0,0.5,0,0.7,0.1c0.2,0.1,0.4,0.2,0.5,0.4c0.1,0.1,0.2,0.3,0.2,0.5c0,0.1,0,0.4,0,0.7v2.6h-0.7v-2.6c0-0.3,0-0.5-0.1-0.7
		c-0.1-0.1-0.2-0.3-0.3-0.3c-0.1-0.1-0.3-0.1-0.5-0.1c-0.3,0-0.6,0.1-0.8,0.3c-0.2,0.2-0.3,0.6-0.3,1.1v2.4H464.6z M470.9,539.4
		l0.1,0.6c-0.2,0-0.4,0.1-0.5,0.1c-0.3,0-0.5,0-0.6-0.1c-0.1-0.1-0.2-0.2-0.3-0.3c-0.1-0.1-0.1-0.4-0.1-0.9v-2.5h-0.5v-0.6h0.5v-1.1
		l0.7-0.4v1.5h0.7v0.6h-0.7v2.5c0,0.2,0,0.3,0,0.4c0,0.1,0.1,0.1,0.1,0.1c0.1,0,0.1,0,0.2,0C470.6,539.4,470.8,539.4,470.9,539.4z
		 M471.5,538.5l0.7-0.1c0.1,0.4,0.2,0.7,0.4,0.9c0.2,0.2,0.4,0.3,0.7,0.3c0.3,0,0.6-0.1,0.9-0.3c0.2-0.2,0.4-0.5,0.4-0.9
		c0-0.3-0.1-0.6-0.3-0.8c-0.2-0.2-0.5-0.3-0.8-0.3c-0.1,0-0.3,0-0.5,0.1l0.1-0.6c0.1,0,0.1,0,0.1,0c0.3,0,0.6-0.1,0.8-0.2
		c0.3-0.2,0.4-0.4,0.4-0.8c0-0.3-0.1-0.5-0.3-0.7c-0.2-0.2-0.4-0.3-0.7-0.3c-0.3,0-0.5,0.1-0.7,0.3c-0.2,0.2-0.3,0.4-0.4,0.8
		l-0.7-0.1c0.1-0.5,0.3-0.9,0.6-1.1c0.3-0.3,0.7-0.4,1.2-0.4c0.3,0,0.6,0.1,0.9,0.2s0.5,0.3,0.6,0.6c0.1,0.2,0.2,0.5,0.2,0.8
		c0,0.3-0.1,0.5-0.2,0.7c-0.1,0.2-0.3,0.4-0.6,0.5c0.3,0.1,0.6,0.3,0.8,0.5c0.2,0.3,0.3,0.6,0.3,1c0,0.5-0.2,1-0.6,1.3
		c-0.4,0.4-0.9,0.5-1.4,0.5c-0.5,0-0.9-0.2-1.3-0.5C471.7,539.4,471.5,539,471.5,538.5z M476.4,540v-4.3h0.7v0.6
		c0.2-0.3,0.3-0.5,0.5-0.6c0.1-0.1,0.3-0.1,0.5-0.1c0.2,0,0.5,0.1,0.7,0.2l-0.2,0.7c-0.2-0.1-0.4-0.2-0.5-0.2c-0.2,0-0.3,0-0.4,0.1
		c-0.1,0.1-0.2,0.2-0.3,0.4c-0.1,0.3-0.1,0.5-0.1,0.8v2.3H476.4z M480,540l-1.3-4.3h0.8l0.7,2.5l0.2,0.9c0,0,0.1-0.3,0.2-0.9
		l0.7-2.5h0.7l0.6,2.5l0.2,0.8l0.2-0.8l0.7-2.5h0.7l-1.3,4.3h-0.7l-0.7-2.6l-0.2-0.7l-0.9,3.3H480z M485.1,538.5l0.7-0.1
		c0.1,0.4,0.2,0.7,0.4,0.9c0.2,0.2,0.4,0.3,0.7,0.3c0.3,0,0.6-0.1,0.9-0.3c0.2-0.2,0.4-0.5,0.4-0.9c0-0.3-0.1-0.6-0.3-0.8
		c-0.2-0.2-0.5-0.3-0.8-0.3c-0.1,0-0.3,0-0.5,0.1l0.1-0.6c0.1,0,0.1,0,0.1,0c0.3,0,0.6-0.1,0.8-0.2c0.3-0.2,0.4-0.4,0.4-0.8
		c0-0.3-0.1-0.5-0.3-0.7c-0.2-0.2-0.4-0.3-0.7-0.3c-0.3,0-0.5,0.1-0.7,0.3c-0.2,0.2-0.3,0.4-0.4,0.8l-0.7-0.1
		c0.1-0.5,0.3-0.9,0.6-1.1c0.3-0.3,0.7-0.4,1.2-0.4c0.3,0,0.6,0.1,0.9,0.2s0.5,0.3,0.6,0.6c0.1,0.2,0.2,0.5,0.2,0.8
		c0,0.3-0.1,0.5-0.2,0.7c-0.1,0.2-0.3,0.4-0.6,0.5c0.3,0.1,0.6,0.3,0.8,0.5c0.2,0.3,0.3,0.6,0.3,1c0,0.5-0.2,1-0.6,1.3
		c-0.4,0.4-0.9,0.5-1.4,0.5c-0.5,0-0.9-0.2-1.3-0.5C485.4,539.4,485.2,539,485.1,538.5z M490.7,540h-0.7v-5.9h0.7v2.1
		c0.3-0.4,0.7-0.6,1.2-0.6c0.3,0,0.5,0.1,0.7,0.2c0.2,0.1,0.4,0.3,0.6,0.4s0.3,0.4,0.4,0.7c0.1,0.3,0.1,0.6,0.1,0.9
		c0,0.7-0.2,1.3-0.5,1.7c-0.4,0.4-0.8,0.6-1.3,0.6c-0.5,0-0.9-0.2-1.2-0.6V540z M490.7,537.9c0,0.5,0.1,0.9,0.2,1.1
		c0.2,0.4,0.5,0.6,0.9,0.6c0.3,0,0.6-0.1,0.8-0.4c0.2-0.3,0.3-0.7,0.3-1.2c0-0.6-0.1-1-0.3-1.2c-0.2-0.3-0.5-0.4-0.8-0.4
		c-0.3,0-0.6,0.1-0.8,0.4C490.8,536.9,490.7,537.3,490.7,537.9z M494.4,540v-0.6l2.7-3.1c-0.3,0-0.6,0-0.8,0h-1.7v-0.6h3.5v0.5
		l-2.3,2.7l-0.5,0.5c0.3,0,0.6,0,0.9,0h2v0.6H494.4z"/>
	<path fill="#C9DAF8" d="M516.9,527.3h36.5v-5.8l11.6,11.6l-11.6,11.6v-5.8h-36.5V527.3z"/>
	<path fill="none" stroke="#5B595A" stroke-width="2" stroke-linejoin="round" stroke-miterlimit="10" d="M516.9,527.3h36.5v-5.8
		l11.6,11.6l-11.6,11.6v-5.8h-36.5V527.3z"/>
	<path d="M523.2,535.4v-5h2.2c0.4,0,0.8,0,1,0.1c0.2,0.1,0.4,0.2,0.6,0.5c0.1,0.2,0.2,0.5,0.2,0.8c0,0.4-0.1,0.7-0.3,0.9
		c-0.2,0.2-0.6,0.4-1.1,0.5c0.2,0.1,0.3,0.2,0.4,0.2c0.2,0.2,0.4,0.4,0.6,0.7l0.9,1.4h-0.8l-0.7-1c-0.2-0.3-0.4-0.5-0.5-0.7
		s-0.2-0.3-0.3-0.3s-0.2-0.1-0.3-0.1c-0.1,0-0.2,0-0.4,0h-0.8v2.2H523.2z M523.9,532.6h1.4c0.3,0,0.5,0,0.7-0.1
		c0.2-0.1,0.3-0.2,0.4-0.3c0.1-0.1,0.1-0.3,0.1-0.4c0-0.2-0.1-0.4-0.3-0.6c-0.2-0.2-0.4-0.2-0.8-0.2h-1.6V532.6z M530.5,534.3
		l0.6,0.1c-0.1,0.4-0.3,0.7-0.6,0.9c-0.3,0.2-0.6,0.3-1,0.3c-0.5,0-1-0.2-1.3-0.5c-0.3-0.3-0.5-0.8-0.5-1.4c0-0.6,0.2-1.1,0.5-1.4
		c0.3-0.3,0.7-0.5,1.2-0.5c0.5,0,0.9,0.2,1.2,0.5c0.3,0.3,0.5,0.8,0.5,1.4c0,0,0,0.1,0,0.2h-2.7c0,0.4,0.1,0.7,0.3,0.9
		c0.2,0.2,0.5,0.3,0.8,0.3c0.2,0,0.4-0.1,0.6-0.2C530.3,534.7,530.4,534.5,530.5,534.3z M528.5,533.3h2c0-0.3-0.1-0.5-0.2-0.7
		c-0.2-0.2-0.5-0.3-0.8-0.3c-0.3,0-0.5,0.1-0.7,0.3C528.6,532.7,528.5,533,528.5,533.3z M534.1,536.8v-1.8c-0.1,0.1-0.2,0.2-0.4,0.3
		c-0.2,0.1-0.4,0.1-0.5,0.1c-0.4,0-0.8-0.2-1.1-0.5c-0.3-0.3-0.5-0.8-0.5-1.4c0-0.4,0.1-0.7,0.2-1c0.1-0.3,0.3-0.5,0.5-0.7
		c0.2-0.2,0.5-0.2,0.8-0.2c0.4,0,0.8,0.2,1.1,0.6v-0.5h0.6v5H534.1z M532.2,533.6c0,0.5,0.1,0.8,0.3,1.1c0.2,0.2,0.4,0.3,0.7,0.3
		c0.3,0,0.5-0.1,0.7-0.3c0.2-0.2,0.3-0.6,0.3-1c0-0.5-0.1-0.8-0.3-1.1c-0.2-0.2-0.4-0.4-0.7-0.4c-0.3,0-0.5,0.1-0.7,0.3
		C532.3,532.8,532.2,533.1,532.2,533.6z M538,535.4v-0.5c-0.3,0.4-0.7,0.6-1.2,0.6c-0.2,0-0.4,0-0.6-0.1c-0.2-0.1-0.3-0.2-0.4-0.3
		c-0.1-0.1-0.1-0.3-0.2-0.5c0-0.1,0-0.3,0-0.6v-2.3h0.6v2c0,0.3,0,0.5,0,0.7c0,0.2,0.1,0.3,0.2,0.4c0.1,0.1,0.3,0.1,0.5,0.1
		c0.2,0,0.4,0,0.5-0.1c0.2-0.1,0.3-0.2,0.3-0.4c0.1-0.2,0.1-0.4,0.1-0.7v-2h0.6v3.6H538z M541.9,534.3l0.6,0.1
		c-0.1,0.4-0.3,0.7-0.6,0.9c-0.3,0.2-0.6,0.3-1,0.3c-0.5,0-1-0.2-1.3-0.5c-0.3-0.3-0.5-0.8-0.5-1.4c0-0.6,0.2-1.1,0.5-1.4
		c0.3-0.3,0.7-0.5,1.2-0.5c0.5,0,0.9,0.2,1.2,0.5c0.3,0.3,0.5,0.8,0.5,1.4c0,0,0,0.1,0,0.2h-2.7c0,0.4,0.1,0.7,0.3,0.9
		c0.2,0.2,0.5,0.3,0.8,0.3c0.2,0,0.4-0.1,0.6-0.2C541.6,534.7,541.8,534.5,541.9,534.3z M539.8,533.3h2c0-0.3-0.1-0.5-0.2-0.7
		c-0.2-0.2-0.5-0.3-0.8-0.3c-0.3,0-0.5,0.1-0.7,0.3C540,532.7,539.9,533,539.8,533.3z M542.9,534.4l0.6-0.1c0,0.2,0.1,0.4,0.3,0.6
		c0.2,0.1,0.4,0.2,0.7,0.2c0.3,0,0.5-0.1,0.6-0.2c0.1-0.1,0.2-0.2,0.2-0.4c0-0.1-0.1-0.2-0.2-0.3c-0.1-0.1-0.3-0.1-0.6-0.2
		c-0.5-0.1-0.8-0.2-0.9-0.3c-0.2-0.1-0.3-0.2-0.4-0.3c-0.1-0.1-0.1-0.3-0.1-0.5c0-0.2,0-0.3,0.1-0.4c0.1-0.1,0.2-0.3,0.3-0.3
		c0.1-0.1,0.2-0.1,0.4-0.2c0.2,0,0.3-0.1,0.5-0.1c0.3,0,0.5,0,0.7,0.1c0.2,0.1,0.4,0.2,0.5,0.3c0.1,0.1,0.2,0.3,0.2,0.6l-0.6,0.1
		c0-0.2-0.1-0.3-0.2-0.4c-0.1-0.1-0.3-0.2-0.5-0.2c-0.3,0-0.5,0-0.6,0.1c-0.1,0.1-0.2,0.2-0.2,0.3c0,0.1,0,0.1,0.1,0.2
		c0.1,0.1,0.1,0.1,0.2,0.2c0.1,0,0.2,0.1,0.5,0.2c0.4,0.1,0.7,0.2,0.9,0.3c0.2,0.1,0.3,0.2,0.4,0.3c0.1,0.1,0.1,0.3,0.1,0.5
		c0,0.2-0.1,0.4-0.2,0.6c-0.1,0.2-0.3,0.3-0.5,0.4c-0.2,0.1-0.5,0.1-0.8,0.1c-0.5,0-0.8-0.1-1.1-0.3
		C543.1,535,543,534.7,542.9,534.4z M547.9,534.9l0.1,0.5c-0.2,0-0.3,0.1-0.5,0.1c-0.2,0-0.4,0-0.5-0.1c-0.1-0.1-0.2-0.2-0.3-0.3
		c0-0.1-0.1-0.4-0.1-0.7v-2.1h-0.5v-0.5h0.5v-0.9l0.6-0.4v1.3h0.6v0.5h-0.6v2.1c0,0.2,0,0.3,0,0.3c0,0,0.1,0.1,0.1,0.1
		c0.1,0,0.1,0,0.2,0C547.7,534.9,547.8,534.9,547.9,534.9z"/>
	<path fill="#C9DAF8" d="M173.9,522.7h255.8v-10.3l20.6,20.6l-20.6,20.6v-10.3H173.9V522.7z"/>
	<path fill="none" stroke="#5B595A" stroke-width="2" stroke-linejoin="round" stroke-miterlimit="10" d="M173.9,522.7h255.8v-10.3
		l20.6,20.6l-20.6,20.6v-10.3H173.9V522.7z"/>
	<path d="M180.6,537.5v-8.7h3.8c0.8,0,1.4,0.1,1.8,0.2c0.4,0.2,0.7,0.4,1,0.8c0.2,0.4,0.4,0.8,0.4,1.3c0,0.6-0.2,1.1-0.6,1.6
		c-0.4,0.4-1,0.7-1.8,0.8c0.3,0.1,0.5,0.3,0.7,0.4c0.3,0.3,0.6,0.7,0.9,1.2l1.5,2.4h-1.4l-1.1-1.8c-0.3-0.5-0.6-0.9-0.8-1.2
		c-0.2-0.3-0.4-0.5-0.6-0.6c-0.2-0.1-0.3-0.2-0.5-0.2c-0.1,0-0.3,0-0.6,0h-1.3v3.9H180.6z M181.7,532.6h2.5c0.5,0,0.9-0.1,1.2-0.2
		c0.3-0.1,0.5-0.3,0.7-0.5c0.2-0.2,0.2-0.5,0.2-0.8c0-0.4-0.1-0.7-0.4-1c-0.3-0.3-0.8-0.4-1.4-0.4h-2.7V532.6z M193.3,535.4l1.1,0.1
		c-0.2,0.6-0.5,1.1-1,1.5c-0.5,0.4-1.1,0.5-1.8,0.5c-0.9,0-1.6-0.3-2.2-0.8s-0.8-1.4-0.8-2.4c0-1.1,0.3-1.9,0.8-2.5
		c0.5-0.6,1.3-0.9,2.1-0.9c0.8,0,1.5,0.3,2.1,0.9c0.5,0.6,0.8,1.4,0.8,2.4c0,0.1,0,0.2,0,0.3h-4.7c0,0.7,0.2,1.2,0.6,1.6
		c0.4,0.4,0.8,0.5,1.3,0.5c0.4,0,0.7-0.1,1-0.3C192.9,536.2,193.2,535.9,193.3,535.4z M189.8,533.7h3.5c0-0.5-0.2-0.9-0.4-1.2
		c-0.3-0.4-0.8-0.6-1.3-0.6c-0.5,0-0.9,0.2-1.2,0.5C190,532.7,189.9,533.2,189.8,533.7z M199.6,539.9v-3.1c-0.2,0.2-0.4,0.4-0.7,0.6
		c-0.3,0.2-0.6,0.2-0.9,0.2c-0.7,0-1.4-0.3-1.9-0.9c-0.5-0.6-0.8-1.4-0.8-2.5c0-0.6,0.1-1.2,0.3-1.7c0.2-0.5,0.5-0.9,0.9-1.1
		c0.4-0.3,0.9-0.4,1.4-0.4c0.8,0,1.4,0.3,1.8,1v-0.8h1v8.7H199.6z M196.4,534.3c0,0.8,0.2,1.4,0.5,1.8c0.3,0.4,0.7,0.6,1.2,0.6
		c0.5,0,0.8-0.2,1.2-0.6c0.3-0.4,0.5-1,0.5-1.8c0-0.8-0.2-1.5-0.5-1.9c-0.3-0.4-0.8-0.6-1.2-0.6c-0.5,0-0.9,0.2-1.2,0.6
		C196.5,532.9,196.4,533.5,196.4,534.3z M206.4,537.5v-0.9c-0.5,0.7-1.1,1.1-2,1.1c-0.4,0-0.7-0.1-1-0.2c-0.3-0.1-0.6-0.3-0.7-0.5
		c-0.2-0.2-0.3-0.5-0.3-0.8c0-0.2-0.1-0.5-0.1-1v-3.9h1.1v3.5c0,0.6,0,0.9,0.1,1.1c0.1,0.3,0.2,0.5,0.4,0.7c0.2,0.2,0.5,0.2,0.8,0.2
		c0.3,0,0.6-0.1,0.9-0.2c0.3-0.2,0.5-0.4,0.6-0.7c0.1-0.3,0.2-0.7,0.2-1.2v-3.4h1.1v6.3H206.4z M213.2,535.4l1.1,0.1
		c-0.2,0.6-0.5,1.1-1,1.5c-0.5,0.4-1.1,0.5-1.8,0.5c-0.9,0-1.6-0.3-2.2-0.8c-0.5-0.6-0.8-1.4-0.8-2.4c0-1.1,0.3-1.9,0.8-2.5
		c0.5-0.6,1.3-0.9,2.1-0.9c0.8,0,1.5,0.3,2.1,0.9c0.5,0.6,0.8,1.4,0.8,2.4c0,0.1,0,0.2,0,0.3h-4.7c0,0.7,0.2,1.2,0.6,1.6
		s0.8,0.5,1.3,0.5c0.4,0,0.7-0.1,1-0.3C212.8,536.2,213,535.9,213.2,535.4z M209.7,533.7h3.5c0-0.5-0.2-0.9-0.4-1.2
		c-0.3-0.4-0.8-0.6-1.3-0.6c-0.5,0-0.9,0.2-1.2,0.5C209.9,532.7,209.7,533.2,209.7,533.7z M215.1,535.6l1.1-0.2
		c0.1,0.4,0.2,0.8,0.5,1c0.3,0.2,0.7,0.3,1.1,0.3c0.5,0,0.9-0.1,1.1-0.3c0.2-0.2,0.4-0.4,0.4-0.7c0-0.2-0.1-0.4-0.3-0.6
		c-0.1-0.1-0.5-0.2-1.1-0.4c-0.8-0.2-1.3-0.4-1.6-0.5c-0.3-0.1-0.5-0.3-0.7-0.6c-0.2-0.3-0.2-0.5-0.2-0.8c0-0.3,0.1-0.5,0.2-0.8
		c0.1-0.2,0.3-0.4,0.5-0.6c0.2-0.1,0.4-0.2,0.7-0.3c0.3-0.1,0.6-0.1,0.9-0.1c0.5,0,0.9,0.1,1.3,0.2c0.4,0.1,0.6,0.3,0.8,0.6
		c0.2,0.2,0.3,0.6,0.4,1l-1,0.1c0-0.3-0.2-0.6-0.4-0.7c-0.2-0.2-0.5-0.3-1-0.3c-0.5,0-0.8,0.1-1,0.2c-0.2,0.2-0.3,0.3-0.3,0.6
		c0,0.1,0,0.3,0.1,0.4c0.1,0.1,0.2,0.2,0.4,0.3c0.1,0,0.4,0.1,0.9,0.3c0.8,0.2,1.3,0.4,1.6,0.5c0.3,0.1,0.5,0.3,0.7,0.6
		c0.2,0.2,0.3,0.6,0.3,0.9c0,0.4-0.1,0.7-0.3,1c-0.2,0.3-0.5,0.6-0.9,0.7c-0.4,0.2-0.8,0.2-1.3,0.2c-0.8,0-1.4-0.2-1.9-0.5
		C215.4,536.8,215.2,536.3,215.1,535.6z M223.8,536.5l0.1,0.9c-0.3,0.1-0.6,0.1-0.8,0.1c-0.4,0-0.7-0.1-0.9-0.2
		c-0.2-0.1-0.4-0.3-0.4-0.5c-0.1-0.2-0.1-0.6-0.1-1.3V532h-0.8v-0.8h0.8v-1.6l1.1-0.6v2.2h1.1v0.8h-1.1v3.7c0,0.3,0,0.5,0,0.6
		c0,0.1,0.1,0.2,0.2,0.2c0.1,0.1,0.2,0.1,0.4,0.1C223.4,536.6,223.6,536.5,223.8,536.5z M227.6,535.6l1.1-0.2c0.1,0.4,0.2,0.8,0.5,1
		c0.3,0.2,0.7,0.3,1.1,0.3c0.5,0,0.9-0.1,1.1-0.3c0.2-0.2,0.4-0.4,0.4-0.7c0-0.2-0.1-0.4-0.3-0.6c-0.1-0.1-0.5-0.2-1.1-0.4
		c-0.8-0.2-1.3-0.4-1.6-0.5c-0.3-0.1-0.5-0.3-0.7-0.6c-0.2-0.3-0.2-0.5-0.2-0.8c0-0.3,0.1-0.5,0.2-0.8c0.1-0.2,0.3-0.4,0.5-0.6
		c0.2-0.1,0.4-0.2,0.7-0.3c0.3-0.1,0.6-0.1,0.9-0.1c0.5,0,0.9,0.1,1.3,0.2c0.4,0.1,0.6,0.3,0.8,0.6c0.2,0.2,0.3,0.6,0.4,1l-1,0.1
		c0-0.3-0.2-0.6-0.4-0.7c-0.2-0.2-0.5-0.3-1-0.3c-0.5,0-0.8,0.1-1,0.2c-0.2,0.2-0.3,0.3-0.3,0.6c0,0.1,0,0.3,0.1,0.4
		c0.1,0.1,0.2,0.2,0.4,0.3c0.1,0,0.4,0.1,0.9,0.3c0.8,0.2,1.3,0.4,1.6,0.5c0.3,0.1,0.5,0.3,0.7,0.6c0.2,0.2,0.3,0.6,0.3,0.9
		c0,0.4-0.1,0.7-0.3,1c-0.2,0.3-0.5,0.6-0.9,0.7c-0.4,0.2-0.8,0.2-1.3,0.2c-0.8,0-1.4-0.2-1.9-0.5
		C228,536.8,227.7,536.3,227.6,535.6z M238.3,535.4l1.1,0.1c-0.2,0.6-0.5,1.1-1,1.5c-0.5,0.4-1.1,0.5-1.8,0.5
		c-0.9,0-1.6-0.3-2.2-0.8c-0.5-0.6-0.8-1.4-0.8-2.4c0-1.1,0.3-1.9,0.8-2.5c0.5-0.6,1.3-0.9,2.1-0.9c0.8,0,1.5,0.3,2.1,0.9
		c0.5,0.6,0.8,1.4,0.8,2.4c0,0.1,0,0.2,0,0.3h-4.7c0,0.7,0.2,1.2,0.6,1.6s0.8,0.5,1.3,0.5c0.4,0,0.7-0.1,1-0.3
		C237.9,536.2,238.1,535.9,238.3,535.4z M234.8,533.7h3.5c0-0.5-0.2-0.9-0.4-1.2c-0.3-0.4-0.8-0.6-1.3-0.6c-0.5,0-0.9,0.2-1.2,0.5
		C235,532.7,234.8,533.2,234.8,533.7z M240.6,537.5v-6.3h1v0.9c0.5-0.7,1.1-1,2-1c0.4,0,0.7,0.1,1,0.2c0.3,0.1,0.6,0.3,0.7,0.5
		c0.2,0.2,0.3,0.5,0.3,0.8c0,0.2,0.1,0.5,0.1,1v3.9h-1.1v-3.8c0-0.4,0-0.8-0.1-1c-0.1-0.2-0.2-0.4-0.4-0.5c-0.2-0.1-0.5-0.2-0.7-0.2
		c-0.5,0-0.8,0.1-1.2,0.4c-0.3,0.3-0.5,0.8-0.5,1.6v3.4H240.6z M249.5,536.5l0.1,0.9c-0.3,0.1-0.6,0.1-0.8,0.1
		c-0.4,0-0.7-0.1-0.9-0.2c-0.2-0.1-0.4-0.3-0.4-0.5c-0.1-0.2-0.1-0.6-0.1-1.3V532h-0.8v-0.8h0.8v-1.6l1.1-0.6v2.2h1.1v0.8h-1.1v3.7
		c0,0.3,0,0.5,0,0.6c0,0.1,0.1,0.2,0.2,0.2c0.1,0.1,0.2,0.1,0.4,0.1C249.2,536.6,249.3,536.5,249.5,536.5z M256.2,536.5l0.1,0.9
		c-0.3,0.1-0.6,0.1-0.8,0.1c-0.4,0-0.7-0.1-0.9-0.2c-0.2-0.1-0.4-0.3-0.4-0.5c-0.1-0.2-0.1-0.6-0.1-1.3V532h-0.8v-0.8h0.8v-1.6
		l1.1-0.6v2.2h1.1v0.8h-1.1v3.7c0,0.3,0,0.5,0,0.6c0,0.1,0.1,0.2,0.2,0.2s0.2,0.1,0.4,0.1C255.8,536.6,256,536.5,256.2,536.5z
		 M256.7,534.3c0-1.2,0.3-2,1-2.6c0.5-0.5,1.2-0.7,2-0.7c0.9,0,1.6,0.3,2.1,0.9c0.6,0.6,0.8,1.3,0.8,2.3c0,0.8-0.1,1.4-0.4,1.9
		c-0.2,0.5-0.6,0.8-1.1,1.1c-0.5,0.3-1,0.4-1.5,0.4c-0.9,0-1.6-0.3-2.1-0.8C257,536.2,256.7,535.4,256.7,534.3z M257.8,534.3
		c0,0.8,0.2,1.4,0.5,1.8c0.4,0.4,0.8,0.6,1.3,0.6c0.5,0,1-0.2,1.3-0.6c0.4-0.4,0.5-1,0.5-1.8c0-0.8-0.2-1.4-0.5-1.8
		c-0.4-0.4-0.8-0.6-1.3-0.6c-0.5,0-1,0.2-1.3,0.6C258,532.9,257.8,533.5,257.8,534.3z M270.8,537.5h-1.1v-6.8
		c-0.3,0.2-0.6,0.5-1,0.7c-0.4,0.2-0.8,0.4-1.1,0.5v-1c0.6-0.3,1.1-0.6,1.6-1s0.8-0.8,0.9-1.2h0.7V537.5z M273.4,529.9v-1h5.6v0.8
		c-0.6,0.6-1.1,1.4-1.6,2.3c-0.5,1-1,2-1.3,3c-0.2,0.7-0.3,1.5-0.4,2.4h-1.1c0-0.7,0.1-1.5,0.4-2.5c0.3-1,0.6-1.9,1.1-2.8
		c0.5-0.9,1-1.7,1.5-2.3H273.4z M280,535.2l1.1-0.1c0.1,0.6,0.3,1,0.6,1.3c0.3,0.3,0.7,0.4,1.1,0.4c0.5,0,0.9-0.2,1.3-0.5
		c0.3-0.4,0.5-0.8,0.5-1.3c0-0.5-0.2-0.9-0.5-1.2c-0.3-0.3-0.7-0.5-1.2-0.5c-0.2,0-0.4,0-0.7,0.1l0.1-0.9c0.1,0,0.1,0,0.2,0
		c0.5,0,0.9-0.1,1.2-0.3c0.4-0.2,0.5-0.6,0.5-1.1c0-0.4-0.1-0.7-0.4-1c-0.3-0.3-0.6-0.4-1-0.4c-0.4,0-0.8,0.1-1,0.4
		c-0.3,0.3-0.4,0.7-0.5,1.2l-1.1-0.2c0.1-0.7,0.4-1.3,0.9-1.7c0.5-0.4,1-0.6,1.7-0.6c0.5,0,0.9,0.1,1.3,0.3c0.4,0.2,0.7,0.5,0.9,0.8
		c0.2,0.4,0.3,0.7,0.3,1.1c0,0.4-0.1,0.7-0.3,1s-0.5,0.6-0.9,0.7c0.5,0.1,0.9,0.4,1.2,0.7c0.3,0.4,0.4,0.8,0.4,1.4
		c0,0.8-0.3,1.4-0.8,1.9c-0.6,0.5-1.2,0.8-2.1,0.8c-0.8,0-1.4-0.2-1.9-0.7C280.3,536.5,280.1,535.9,280,535.2z M287.2,537.5v-1.2
		h1.2v1.2H287.2z M295.5,536.4v1h-5.7c0-0.3,0-0.5,0.1-0.7c0.1-0.4,0.4-0.8,0.7-1.2c0.3-0.4,0.8-0.8,1.4-1.3
		c0.9-0.8,1.6-1.4,1.9-1.8c0.3-0.5,0.5-0.9,0.5-1.3c0-0.4-0.2-0.8-0.5-1.1c-0.3-0.3-0.7-0.4-1.2-0.4c-0.5,0-0.9,0.2-1.2,0.5
		c-0.3,0.3-0.5,0.7-0.5,1.3l-1.1-0.1c0.1-0.8,0.4-1.4,0.8-1.9c0.5-0.4,1.1-0.6,2-0.6c0.8,0,1.5,0.2,2,0.7c0.5,0.5,0.7,1,0.7,1.7
		c0,0.3-0.1,0.7-0.2,1c-0.1,0.3-0.4,0.7-0.7,1.1c-0.3,0.4-0.9,0.9-1.6,1.5c-0.6,0.5-1,0.9-1.2,1.1c-0.2,0.2-0.3,0.4-0.4,0.6H295.5z
		 M296.5,535.2l1.1-0.1c0.1,0.5,0.3,1,0.6,1.2c0.3,0.3,0.7,0.4,1.1,0.4c0.5,0,0.9-0.2,1.3-0.6c0.4-0.4,0.5-0.9,0.5-1.5
		c0-0.6-0.2-1.1-0.5-1.4c-0.3-0.4-0.8-0.5-1.3-0.5c-0.3,0-0.6,0.1-0.9,0.2c-0.3,0.2-0.5,0.4-0.6,0.6l-1-0.1l0.8-4.5h4.3v1h-3.5
		l-0.5,2.3c0.5-0.4,1.1-0.5,1.6-0.5c0.8,0,1.4,0.3,1.9,0.8c0.5,0.5,0.8,1.2,0.8,2c0,0.8-0.2,1.5-0.7,2c-0.6,0.7-1.3,1.1-2.3,1.1
		c-0.8,0-1.4-0.2-1.9-0.7C296.9,536.5,296.6,535.9,296.5,535.2z M308.7,536.4v1H303c0-0.3,0-0.5,0.1-0.7c0.1-0.4,0.4-0.8,0.7-1.2
		c0.3-0.4,0.8-0.8,1.4-1.3c0.9-0.8,1.6-1.4,1.9-1.8c0.3-0.5,0.5-0.9,0.5-1.3c0-0.4-0.2-0.8-0.5-1.1c-0.3-0.3-0.7-0.4-1.2-0.4
		c-0.5,0-0.9,0.2-1.2,0.5c-0.3,0.3-0.5,0.7-0.5,1.3l-1.1-0.1c0.1-0.8,0.4-1.4,0.8-1.9c0.5-0.4,1.1-0.6,2-0.6c0.8,0,1.5,0.2,2,0.7
		c0.5,0.5,0.7,1,0.7,1.7c0,0.3-0.1,0.7-0.2,1c-0.1,0.3-0.4,0.7-0.7,1.1c-0.3,0.4-0.9,0.9-1.6,1.5c-0.6,0.5-1,0.9-1.2,1.1
		c-0.2,0.2-0.3,0.4-0.4,0.6H308.7z M310.3,537.5v-1.2h1.2v1.2H310.3z M317.1,537.5H316v-6.8c-0.3,0.2-0.6,0.5-1,0.7
		c-0.4,0.2-0.8,0.4-1.1,0.5v-1c0.6-0.3,1.1-0.6,1.6-1s0.8-0.8,0.9-1.2h0.7V537.5z M323.7,537.5h-1.1v-6.8c-0.3,0.2-0.6,0.5-1,0.7
		c-0.4,0.2-0.8,0.4-1.1,0.5v-1c0.6-0.3,1.1-0.6,1.6-1c0.4-0.4,0.8-0.8,0.9-1.2h0.7V537.5z M326.3,533.2c0-1,0.1-1.9,0.3-2.5
		c0.2-0.6,0.5-1.1,0.9-1.4c0.4-0.3,0.9-0.5,1.6-0.5c0.5,0,0.9,0.1,1.2,0.3c0.4,0.2,0.6,0.5,0.9,0.8c0.2,0.4,0.4,0.8,0.5,1.3
		c0.1,0.5,0.2,1.2,0.2,2.1c0,1-0.1,1.8-0.3,2.5c-0.2,0.6-0.5,1.1-0.9,1.5c-0.4,0.3-0.9,0.5-1.6,0.5c-0.8,0-1.5-0.3-2-0.9
		C326.6,536,326.3,534.8,326.3,533.2z M327.4,533.2c0,1.4,0.2,2.4,0.5,2.8c0.3,0.5,0.8,0.7,1.2,0.7c0.5,0,0.9-0.2,1.2-0.7
		c0.3-0.5,0.5-1.4,0.5-2.8c0-1.4-0.2-2.4-0.5-2.8c-0.3-0.5-0.7-0.7-1.2-0.7c-0.5,0-0.9,0.2-1.2,0.6
		C327.6,530.8,327.4,531.8,327.4,533.2z M333.5,537.5v-1.2h1.2v1.2H333.5z M341.8,536.4v1h-5.7c0-0.3,0-0.5,0.1-0.7
		c0.1-0.4,0.4-0.8,0.7-1.2c0.3-0.4,0.8-0.8,1.4-1.3c0.9-0.8,1.6-1.4,1.9-1.8s0.5-0.9,0.5-1.3c0-0.4-0.2-0.8-0.5-1.1
		c-0.3-0.3-0.7-0.4-1.2-0.4c-0.5,0-0.9,0.2-1.2,0.5c-0.3,0.3-0.5,0.7-0.5,1.3l-1.1-0.1c0.1-0.8,0.4-1.4,0.8-1.9
		c0.5-0.4,1.1-0.6,2-0.6c0.8,0,1.5,0.2,2,0.7c0.5,0.5,0.7,1,0.7,1.7c0,0.3-0.1,0.7-0.2,1c-0.1,0.3-0.4,0.7-0.7,1.1
		c-0.3,0.4-0.9,0.9-1.6,1.5c-0.6,0.5-1,0.9-1.2,1.1c-0.2,0.2-0.3,0.4-0.4,0.6H341.8z M342.9,529.9v-1h5.6v0.8
		c-0.6,0.6-1.1,1.4-1.6,2.3c-0.5,1-1,2-1.3,3c-0.2,0.7-0.3,1.5-0.4,2.4h-1.1c0-0.7,0.1-1.5,0.4-2.5c0.3-1,0.6-1.9,1.1-2.8
		c0.5-0.9,1-1.7,1.5-2.3H342.9z"/>
	<path fill="#CFD4D4" d="M561.5,522.8h35.8v26.4h-35.8V522.8z"/>
	<path fill="#A5A9A9" d="M597.3,522.8l8.8-8.8v26.4l-8.8,8.8V522.8z"/>
	<path fill="#D8DCDC" d="M561.5,522.8l8.8-8.8h35.8l-8.8,8.8H561.5z"/>
	<path fill-opacity="0" d="M561.5,522.8l8.8-8.8h35.8v26.4l-8.8,8.8h-35.8V522.8z M561.5,522.8h35.8l8.8-8.8 M597.3,522.8v26.4"/>
	<path fill="none" stroke="#5B595A" stroke-width="2" stroke-linejoin="round" stroke-miterlimit="10" d="M561.5,522.8l8.8-8.8h35.8
		v26.4l-8.8,8.8h-35.8V522.8z M561.5,522.8h35.8l8.8-8.8 M597.3,522.8v26.4"/>
	<path d="M567.5,536.8l0.6,0c0,0.2,0.1,0.5,0.2,0.6c0.1,0.2,0.3,0.3,0.5,0.4s0.5,0.1,0.8,0.1c0.3,0,0.5,0,0.7-0.1
		c0.2-0.1,0.3-0.2,0.4-0.3c0.1-0.1,0.1-0.3,0.1-0.4s0-0.3-0.1-0.4c-0.1-0.1-0.2-0.2-0.5-0.3c-0.1-0.1-0.4-0.1-0.9-0.2
		c-0.5-0.1-0.8-0.2-1-0.3c-0.2-0.1-0.4-0.3-0.5-0.5c-0.1-0.2-0.2-0.4-0.2-0.6c0-0.3,0.1-0.5,0.2-0.7c0.1-0.2,0.4-0.4,0.6-0.5
		c0.3-0.1,0.6-0.2,0.9-0.2c0.4,0,0.7,0.1,1,0.2c0.3,0.1,0.5,0.3,0.7,0.5c0.2,0.2,0.2,0.5,0.2,0.8l-0.6,0c0-0.3-0.1-0.6-0.3-0.7
		c-0.2-0.2-0.5-0.2-0.9-0.2c-0.4,0-0.7,0.1-0.9,0.2c-0.2,0.1-0.3,0.3-0.3,0.5c0,0.2,0.1,0.3,0.2,0.4c0.1,0.1,0.5,0.2,1,0.4
		c0.5,0.1,0.9,0.2,1.1,0.3c0.3,0.1,0.5,0.3,0.6,0.5s0.2,0.4,0.2,0.7c0,0.3-0.1,0.5-0.2,0.8c-0.2,0.2-0.4,0.4-0.7,0.5
		c-0.3,0.1-0.6,0.2-1,0.2c-0.5,0-0.8-0.1-1.1-0.2s-0.5-0.3-0.7-0.6C567.6,537.4,567.6,537.1,567.5,536.8z M574.7,537.2l0.6,0.1
		c-0.1,0.4-0.3,0.7-0.6,0.9c-0.3,0.2-0.6,0.3-1,0.3c-0.5,0-1-0.2-1.3-0.5c-0.3-0.3-0.5-0.8-0.5-1.4c0-0.6,0.2-1.1,0.5-1.4
		c0.3-0.3,0.7-0.5,1.2-0.5c0.5,0,0.9,0.2,1.2,0.5c0.3,0.3,0.5,0.8,0.5,1.4c0,0,0,0.1,0,0.2h-2.7c0,0.4,0.1,0.7,0.3,0.9
		c0.2,0.2,0.5,0.3,0.8,0.3c0.2,0,0.4-0.1,0.6-0.2C574.5,537.7,574.6,537.5,574.7,537.2z M572.7,536.2h2c0-0.3-0.1-0.5-0.2-0.7
		c-0.2-0.2-0.5-0.3-0.8-0.3c-0.3,0-0.5,0.1-0.7,0.3C572.8,535.7,572.7,535.9,572.7,536.2z M576,538.4v-3.6h0.5v0.5
		c0.1-0.3,0.3-0.4,0.4-0.5c0.1-0.1,0.2-0.1,0.4-0.1c0.2,0,0.4,0.1,0.6,0.2l-0.2,0.6c-0.2-0.1-0.3-0.1-0.5-0.1c-0.1,0-0.3,0-0.4,0.1
		c-0.1,0.1-0.2,0.2-0.2,0.3c-0.1,0.2-0.1,0.5-0.1,0.7v1.9H576z M579.3,538.4l-1.4-3.6h0.6l0.8,2.2c0.1,0.2,0.2,0.5,0.2,0.7
		c0.1-0.2,0.1-0.4,0.2-0.7l0.8-2.2h0.6l-1.4,3.6H579.3z M584.1,537.2l0.6,0.1c-0.1,0.4-0.3,0.7-0.6,0.9c-0.3,0.2-0.6,0.3-1,0.3
		c-0.5,0-1-0.2-1.3-0.5c-0.3-0.3-0.5-0.8-0.5-1.4c0-0.6,0.2-1.1,0.5-1.4c0.3-0.3,0.7-0.5,1.2-0.5c0.5,0,0.9,0.2,1.2,0.5
		c0.3,0.3,0.5,0.8,0.5,1.4c0,0,0,0.1,0,0.2h-2.7c0,0.4,0.1,0.7,0.3,0.9c0.2,0.2,0.5,0.3,0.8,0.3c0.2,0,0.4-0.1,0.6-0.2
		C583.9,537.7,584.1,537.5,584.1,537.2z M582.1,536.2h2c0-0.3-0.1-0.5-0.2-0.7c-0.2-0.2-0.5-0.3-0.8-0.3c-0.3,0-0.5,0.1-0.7,0.3
		C582.2,535.7,582.1,535.9,582.1,536.2z M585.4,538.4v-3.6h0.5v0.5c0.1-0.3,0.3-0.4,0.4-0.5c0.1-0.1,0.2-0.1,0.4-0.1
		c0.2,0,0.4,0.1,0.6,0.2l-0.2,0.6c-0.2-0.1-0.3-0.1-0.5-0.1c-0.1,0-0.3,0-0.4,0.1c-0.1,0.1-0.2,0.2-0.2,0.3
		c-0.1,0.2-0.1,0.5-0.1,0.7v1.9H585.4z"/>
</g>
</svg>
